<?xml version="1.0" encoding="utf-8"?>
<!-- Generator: Adobe Illustrator 17.0.0, SVG Export Plug-In . SVG Version: 6.00 Build 0)  -->
<!DOCTYPE svg PUBLIC "-//W3C//DTD SVG 1.1//EN" "http://www.w3.org/Graphics/SVG/1.1/DTD/svg11.dtd">
<svg version="1.1" id="Layer_1" xmlns="http://www.w3.org/2000/svg" xmlns:xlink="http://www.w3.org/1999/xlink" x="0px" y="0px"
	 width="263.667px" height="37px" viewBox="0 0 263.667 37" enable-background="new 0 0 263.667 37" xml:space="preserve">
<g display="none">
	<g display="inline">
		<g>
			<g>
				<g>
					<path fill="#E4DDCB" d="M123.156,96.684c-17.53,0-32.356-12.539-35.252-29.816c-1.592-9.494,0.593-19.019,6.153-26.816
						c5.559-7.799,13.849-12.971,23.344-14.562c2.32-0.39,4.578-0.586,6.709-0.586c6.614,0,12.518,1.821,18.582,5.737
						c0.736,0.461,1.238,1.171,1.4,1.988c0.161,0.813-0.029,1.651-0.534,2.36l-6.099,8.907c-0.559,0.785-1.441,1.242-2.371,1.242
						c-0.592,0-1.166-0.18-1.66-0.522c-2.875-1.806-6.236-2.759-9.721-2.759c-1.018,0-2.039,0.084-3.033,0.251
						c-4.785,0.801-8.885,3.464-11.544,7.497c-2.622,3.975-3.613,8.869-2.789,13.78c1.495,8.92,8.866,15.394,17.526,15.394
						c0.995,0,2.008-0.086,3.009-0.253c4.372-0.732,8.569-3.077,11.224-6.269c0.559-0.669,1.482-1.082,2.41-1.082
						c0.659,0,1.276,0.21,1.744,0.59l8.702,6.62c0.61,0.433,1.033,1.18,1.132,2.022c0.092,0.789-0.106,1.594-0.546,2.211
						c-5.394,7.332-13.099,12.014-22.294,13.556C127.231,96.512,125.183,96.684,123.156,96.684 M124.11,27.308
						c-1.998,0-4.121,0.187-6.312,0.554C99.566,30.918,87.22,48.237,90.276,66.471c2.701,16.113,16.529,27.809,32.88,27.809
						c1.892,0,3.809-0.161,5.695-0.477c8.565-1.437,15.739-5.791,20.743-12.596c0.084-0.117,0.129-0.322,0.104-0.52
						c-0.019-0.165-0.083-0.305-0.169-0.366l-8.793-6.69c-0.024-0.021-0.104-0.05-0.227-0.05c-0.246,0-0.475,0.112-0.562,0.218
						c-3.011,3.619-7.749,6.273-12.674,7.1c-1.133,0.189-2.278,0.287-3.406,0.287c-9.84,0-18.208-7.319-19.898-17.402
						c-0.925-5.512,0.196-11.018,3.154-15.503c3.031-4.595,7.702-7.63,13.153-8.544c1.127-0.188,2.281-0.285,3.432-0.285
						c3.949,0,7.764,1.089,11.028,3.146l0.058,0.037c0.092,0.066,0.19,0.1,0.295,0.1c0.092,0,0.266-0.028,0.399-0.216l6.099-8.908
						c0.132-0.185,0.178-0.355,0.146-0.516c-0.041-0.205-0.203-0.345-0.333-0.427C135.729,29.008,130.239,27.308,124.11,27.308"/>
				</g>
			</g>
			<g>
				<g>
					<path fill="#E4DDCB" d="M137.069,59.605c-12.513,0-23.095-8.95-25.162-21.282c-1.136-6.776,0.423-13.574,4.392-19.141
						c3.968-5.565,9.886-9.258,16.663-10.394c1.656-0.277,3.27-0.418,4.791-0.418c4.718,0,8.931,1.301,13.26,4.094
						c0.498,0.312,0.836,0.789,0.943,1.337c0.107,0.545-0.021,1.107-0.361,1.584l-4.378,6.395c-0.374,0.524-0.962,0.831-1.585,0.831
						c-0.404,0-0.795-0.127-1.131-0.365c-2.057-1.294-4.501-1.99-7.037-1.99c-0.738,0-1.479,0.061-2.201,0.183
						c-7.084,1.188-11.652,7.967-10.4,15.434c1.082,6.471,6.432,11.166,12.717,11.166c0.723,0,1.457-0.061,2.183-0.184
						c3.171-0.532,6.215-2.231,8.142-4.548c0.375-0.448,0.996-0.726,1.621-0.726c0.447,0,0.867,0.144,1.179,0.404l6.233,4.742
						c0.408,0.289,0.691,0.789,0.757,1.355c0.062,0.53-0.071,1.073-0.367,1.487c-3.848,5.229-9.347,8.571-15.907,9.671
						C139.978,59.483,138.515,59.605,137.069,59.605 M137.753,9.813c-1.442,0-2.974,0.134-4.553,0.398
						c-6.397,1.073-11.982,4.556-15.727,9.809c-3.744,5.252-5.216,11.668-4.143,18.064c1.95,11.634,11.933,20.078,23.739,20.078
						c1.365,0,2.748-0.117,4.109-0.345c6.186-1.037,11.365-4.182,14.979-9.095c0.081-0.115,0.122-0.296,0.102-0.475
						c-0.019-0.162-0.084-0.293-0.18-0.361l-6.277-4.773c-0.22-0.183-0.638-0.068-0.79,0.116c-2.141,2.573-5.51,4.46-9.013,5.048
						c-0.805,0.135-1.619,0.203-2.421,0.203c-6.993,0-12.939-5.202-14.142-12.371c-1.385-8.265,3.704-15.773,11.587-17.096
						c0.801-0.134,1.621-0.202,2.439-0.202c2.809,0,5.52,0.772,7.842,2.234c0.312,0.22,0.569,0.132,0.729-0.093l4.379-6.396
						c0.115-0.161,0.157-0.326,0.127-0.478c-0.03-0.155-0.135-0.294-0.303-0.398C146.146,11.041,142.181,9.813,137.753,9.813"/>
				</g>
			</g>
			<g>
				<g>
					<path fill="#E4DDCB" d="M88.197,91.808c-14.68,0-27.093-10.5-29.518-24.968c-1.333-7.949,0.497-15.924,5.151-22.454
						c4.655-6.53,11.597-10.86,19.547-12.192c1.944-0.326,3.834-0.491,5.619-0.491c5.537,0,10.481,1.526,15.558,4.804
						c0.608,0.382,1.021,0.965,1.154,1.638c0.133,0.669-0.023,1.359-0.439,1.943l-5.116,7.472c-0.46,0.645-1.185,1.021-1.95,1.021
						c-0.487,0-0.959-0.149-1.365-0.431c-2.419-1.52-5.247-2.322-8.179-2.322c-0.857,0-1.715,0.071-2.552,0.212
						c-4.026,0.675-7.475,2.914-9.712,6.309c-2.205,3.343-3.038,7.459-2.346,11.589c1.257,7.503,7.458,12.948,14.744,12.948
						c0.836,0,1.688-0.072,2.531-0.213c3.678-0.617,7.208-2.588,9.441-5.273c0.459-0.55,1.22-0.89,1.985-0.89
						c0.551,0,1.067,0.178,1.453,0.5l7.279,5.536c0.502,0.357,0.85,0.971,0.932,1.665c0.075,0.65-0.088,1.313-0.45,1.82
						c-4.515,6.139-10.967,10.061-18.667,11.351C91.609,91.665,89.893,91.808,88.197,91.808 M88.997,33.627
						c-1.678,0-3.461,0.155-5.3,0.464c-7.444,1.247-13.942,5.3-18.299,11.412c-4.356,6.111-6.068,13.576-4.821,21.02
						c2.269,13.536,13.885,23.361,27.621,23.361c1.589,0,3.199-0.135,4.784-0.4c7.196-1.207,13.221-4.865,17.426-10.581
						c0.077-0.108,0.117-0.292,0.097-0.469c-0.018-0.153-0.078-0.28-0.161-0.34l-7.337-5.581c-0.187-0.151-0.64-0.028-0.762,0.118
						c-2.518,3.027-6.482,5.248-10.602,5.938c-0.946,0.159-1.905,0.239-2.848,0.239c-8.229,0-15.229-6.121-16.642-14.554
						c-0.773-4.611,0.163-9.217,2.637-12.969c2.536-3.843,6.441-6.381,11-7.146c0.942-0.157,1.907-0.238,2.87-0.238
						c3.304,0,6.494,0.911,9.224,2.631l0.045,0.031c0.213,0.151,0.498,0.102,0.647-0.108l5.117-7.471
						c0.117-0.164,0.158-0.321,0.129-0.468c-0.03-0.15-0.133-0.283-0.3-0.389C98.759,35.055,94.147,33.627,88.997,33.627"/>
				</g>
			</g>
		</g>
		<text transform="matrix(1 0 0 1 9.0957 131.146)" fill="#E4DDCB" font-family="'BrandonGrotesque-Bold'" font-size="19.621">CREATIVE CODE CLUB</text>
	</g>
</g>
<g display="none">
	<g display="inline">
		<path fill="#E4DDCB" d="M215.516,24.417v0.694l-0.007,20.507h-8.07c-0.898-0.008-1.601-0.299-2.258-0.946
			c-0.648-0.659-0.94-1.359-0.946-2.259V29.048h-5.289v13.365c-0.007,2.345,0.834,4.406,2.465,6.028
			c1.623,1.632,3.686,2.472,6.028,2.464h8.07l0.008,13.883c-0.008,0.896-0.3,1.599-0.947,2.257c-0.658,0.647-1.36,0.939-2.257,0.946
			h-79.698c-6.647-0.894-12.231-4.178-16.387-8.33c-4.878-4.882-8.262-11.594-8.266-19.994c0.004-8.486,3.386-15.107,8.266-19.993
			c4.891-4.884,11.296-8.26,19.992-8.264c8.299,0.001,15.114,3.387,19.993,8.264c4.856,4.845,8.275,13.058,8.266,19.993
			c-0.001,2.486-0.895,4.492-2.312,5.914c-1.335,1.353-4.196,2.61-6.602,2.598c-2.763,0-4.473-1.482-5.408-2.414
			c-0.497-0.473-0.882-1.677-1.066-2.913c-0.195-1.236-0.237-2.51-0.236-3.185c0.005-3.67-1.247-6.871-3.721-9.506
			c-2.471-2.643-5.579-3.985-9.206-3.981c-3.629-0.004-6.725,1.339-9.168,3.983c-2.447,2.637-3.683,5.834-3.679,9.504
			c-0.004,3.672,1.231,6.857,3.68,9.465c2.444,2.619,5.539,3.947,9.167,3.941c3.269,0.004,6.15-1.123,8.561-3.35
			c2.727,2.314,7.645,4.119,11.077,4.136c3.724-0.006,8.002-1.278,10.665-3.93c2.619-2.611,3.937-5.958,3.932-10.263
			c0.004-9.377-3.319-17.416-9.925-24.017c-6.598-6.604-14.64-9.928-24.018-9.924c-9.428-0.004-17.482,3.306-24.056,9.885
			c-6.581,6.573-9.888,14.629-9.884,24.056c-0.004,9.43,3.303,17.484,9.884,24.059c1.665,1.665,3.424,3.08,5.274,4.266h-16.49
			c-0.589-1.213-1.568-2.194-2.778-2.786V37.54c0.007-2.344-0.833-4.405-2.465-6.026c-1.622-1.632-3.685-2.472-6.027-2.466H84.39
			c-0.6-1.21-1.592-2.187-2.813-2.768L81.6,11.989h-5.289v14.344c-1.171,0.587-2.123,1.541-2.704,2.715h-9.546
			c-2.342-0.006-4.405,0.834-6.027,2.465c-1.632,1.622-2.471,3.685-2.465,6.027v4.873c-0.006,2.344,0.832,4.406,2.465,6.028
			c1.615,1.626,3.668,2.465,5.999,2.466c0.01,0,0.019,0,0.028-0.001h10.441v-5.288H64.063c-0.898-0.007-1.599-0.298-2.256-0.946
			c-0.648-0.657-0.941-1.359-0.947-2.259V37.54c0.006-0.898,0.298-1.6,0.947-2.258c0.657-0.646,1.358-0.938,2.256-0.945h9.525
			c0.58,1.193,1.539,2.164,2.724,2.757v13.812h5.289v-0.694V37.136c1.224-0.589,2.216-1.576,2.81-2.799h5.268
			c0.897,0.007,1.6,0.299,2.256,0.947c0.648,0.656,0.941,1.36,0.948,2.256v27.673c-1.993,0.98-3.367,3.026-3.368,5.397
			c0.001,3.324,2.695,6.02,6.02,6.021c2.365-0.001,4.406-1.368,5.39-3.352h111.389c0.009,0,0.019,0,0.028,0
			c2.33,0,4.383-0.839,5.998-2.464c1.632-1.623,2.473-3.685,2.465-6.027l0.001-40.371C220.806,24.417,215.516,24.417,215.516,24.417
			z M141.044,45.37c-1.395,1.603-3.066,2.374-5.146,2.381c-2.075-0.007-3.722-0.777-5.071-2.377
			c-1.352-1.615-2.019-3.482-2.021-5.68c0.002-2.191,0.67-4.084,2.025-5.75c1.35-1.642,2.995-2.433,5.066-2.439v-0.001
			c2.073,0.007,3.744,0.8,5.142,2.444c1.396,1.668,2.086,3.558,2.089,5.746C143.126,41.888,142.437,43.753,141.044,45.37z
			 M79,33.527c-1.002-0.001-1.814-0.812-1.814-1.813c0-1.003,0.813-1.812,1.814-1.813c1,0.002,1.813,0.811,1.813,1.813
			C80.813,32.715,80.002,33.526,79,33.527z M95.535,72.424c-1.003-0.001-1.813-0.813-1.814-1.813c0-1.004,0.812-1.812,1.814-1.814
			c1.001,0.003,1.814,0.811,1.814,1.814C97.348,71.61,96.536,72.423,95.535,72.424z"/>
		<path fill="#E4DDCB" d="M53.446,42.134V37.54c0.007-2.343-0.833-4.405-2.464-6.027c-1.623-1.631-3.685-2.471-6.028-2.465H40.08
			c-2.342-0.006-4.405,0.834-6.027,2.465c-1.631,1.622-2.471,3.685-2.464,6.027v4.873c0,0.114,0.011,0.224,0.015,0.336
			c-1.284,0.582-2.325,1.601-2.937,2.869h-5.385c-0.899-0.007-1.6-0.298-2.257-0.946c-0.649-0.657-0.939-1.359-0.948-2.259v-8.076
			h7.383v-5.289h-7.383V21.25H14.79v21.163c-0.007,2.344,0.832,4.406,2.465,6.028c1.615,1.626,3.668,2.465,5.999,2.466
			c0.009,0,0.019,0,0.028-0.001h5.417c0.986,1.979,3.023,3.342,5.384,3.343c2.373-0.001,4.417-1.375,5.398-3.367
			c0.19,0.01,0.378,0.025,0.572,0.025c0.009,0,0.018,0,0.026-0.001h5.812v-5.288H40.08c-0.212-0.002-0.413-0.021-0.606-0.056
			c-0.557-1.124-1.451-2.052-2.556-2.644c-0.024-0.162-0.04-0.329-0.042-0.506v-0.279L53.446,42.134L53.446,42.134z M34.083,50.042
			c-1.001,0-1.812-0.812-1.812-1.812c0-1.004,0.812-1.812,1.812-1.814c1.002,0.002,1.814,0.811,1.814,1.814
			C35.897,49.23,35.086,50.042,34.083,50.042z M36.794,36.966l0.029-0.142c0.126-0.606,0.423-1.131,0.908-1.623
			c0.675-0.666,1.417-0.977,2.342-0.981h4.88c0.924,0.005,1.667,0.315,2.344,0.982c0.483,0.491,0.781,1.016,0.908,1.622l0.027,0.142
			H36.937H36.794z"/>
		<path fill="#E4DDCB" d="M244.675,42.489c0.002-0.025,0.004-0.05,0.004-0.076V29.048h-0.693h-4.595v12.53
			c-1.932,0.58-3.455,2.105-4.032,4.04h-4.046c-0.898-0.007-1.599-0.299-2.256-0.946c-0.649-0.658-0.94-1.359-0.948-2.259
			l0.001-17.996h-5.288v17.996c-0.007,2.343,0.832,4.406,2.466,6.028c1.62,1.632,3.683,2.473,6.025,2.465h4.874
			c0.008,0,0.019,0,0.028,0c0.021,0,0.043-0.003,0.064-0.003c1.097,1.486,2.855,2.457,4.846,2.457c3.325,0,6.019-2.694,6.019-6.019
			C247.144,45.347,246.17,43.584,244.675,42.489z M241.125,49.155c-1.003,0-1.812-0.812-1.812-1.813
			c0-1.004,0.812-1.812,1.812-1.813c1.001,0.002,1.812,0.81,1.812,1.813C242.938,48.343,242.128,49.155,241.125,49.155z"/>
		<path fill="#E4DDCB" d="M194.543,31.514c-1.623-1.632-3.686-2.472-6.026-2.466h-4.875c-0.03,0-0.059,0.004-0.087,0.005
			c-1.099-1.474-2.848-2.432-4.826-2.433c-3.325,0.002-6.019,2.695-6.019,6.02c0,1.984,0.963,3.737,2.442,4.834
			c0,0.022-0.002,0.044-0.002,0.066v8.736h5.287v-7.867c1.955-0.578,3.49-2.118,4.064-4.072h4.015
			c0.896,0.006,1.598,0.299,2.256,0.946c0.647,0.657,0.939,1.361,0.946,2.257v13.366h5.289v-0.694V37.54
			C197.014,35.197,196.174,33.135,194.543,31.514z M178.729,34.452c-1.001,0-1.812-0.811-1.812-1.812
			c0-1.004,0.812-1.812,1.812-1.814c1.001,0.003,1.814,0.811,1.814,1.814C180.543,33.642,179.731,34.452,178.729,34.452z"/>
	</g>
</g>
<g id="layer1" transform="translate(-153.34855,-480.58659)">
	<g>
		<g id="text2985_8_">
			<path id="path2988_8_" d="M175.157,495.394v-2.291c-0.028-1.191-0.528-2.186-1.499-2.979c-0.973-0.793-2.253-1.205-3.843-1.234
				c-3.366,0.082-5.964,1.115-7.795,3.098c-1.83,1.98-2.756,4.412-2.779,7.295c0.082,2.855,1.081,5.184,2.998,6.984
				c1.916,1.803,4.26,2.73,7.031,2.789c1.784-0.021,3.193-0.404,4.229-1.148c1.034-0.744,1.563-1.719,1.585-2.92v-2.254h-0.182
				c-0.343,0.473-0.938,0.891-1.79,1.248c-0.85,0.359-1.974,0.549-3.369,0.568c-1.672-0.027-2.989-0.582-3.948-1.662
				s-1.447-2.525-1.467-4.334c0.046-1.486,0.581-2.717,1.608-3.688s2.271-1.473,3.734-1.508c1.403,0.014,2.556,0.213,3.456,0.597
				c0.899,0.38,1.516,0.86,1.849,1.438h0.182V495.394z"/>
			<path id="path2990_8_" d="M189.975,493.831v-1.744c0.019-0.785-0.282-1.504-0.904-2.158c-0.622-0.652-1.677-1-3.166-1.039
				c-2.559,0.072-4.409,0.861-5.55,2.361c-1.142,1.5-1.702,3.27-1.682,5.305v9.012c0.013,1.02,0.333,1.797,0.963,2.326
				c0.631,0.529,1.496,0.795,2.598,0.799h1.345v-11.264c0.005-1.479,0.295-2.549,0.873-3.207c0.576-0.66,1.413-0.986,2.507-0.973
				c0.629,0.006,1.169,0.066,1.621,0.182s0.857,0.248,1.213,0.4H189.975z"/>
			<path id="path2992_8_" d="M209.259,496.23c-0.072-2.367-0.872-4.221-2.398-5.557c-1.525-1.336-3.343-2.016-5.45-2.039
				c-2.849,0.035-5.146,0.992-6.896,2.871s-2.647,4.473-2.697,7.777c0.097,3.031,1.093,5.424,2.988,7.17
				c1.896,1.748,4.109,2.641,6.641,2.676c2.648-0.027,4.5-0.453,5.56-1.277c1.059-0.82,1.567-1.873,1.526-3.156v-1.525h-0.182
				c-0.807,0.713-1.747,1.203-2.82,1.473c-1.075,0.268-2.133,0.395-3.176,0.381c-1.461-0.014-2.689-0.377-3.684-1.09
				c-0.993-0.713-1.596-1.693-1.803-2.943h3.197c3.213,0.027,5.554-0.318,7.022-1.031S209.28,498.001,209.259,496.23L209.259,496.23
				z M204.68,495.648c0.053,0.682-0.314,1.17-1.104,1.463c-0.787,0.291-2.309,0.434-4.564,0.428h-2.181l0.037-0.656
				c0.071-1.158,0.474-2.137,1.209-2.934c0.732-0.795,1.699-1.211,2.896-1.243c1.141,0,2.04,0.245,2.697,0.735
				C204.331,493.931,204.667,494.667,204.68,495.648L204.68,495.648z"/>
			<path id="path2994_8_" d="M228.393,502.007v-4.506c-0.073-3.324-0.908-5.635-2.506-6.932c-1.6-1.297-3.525-1.918-5.779-1.863
				c-2.554,0.064-4.385,0.592-5.495,1.582s-1.651,2.062-1.627,3.215v1.562h0.182c0.356-0.49,1.043-0.98,2.059-1.467
				c1.015-0.486,2.399-0.748,4.156-0.785c1.447-0.023,2.513,0.23,3.196,0.762c0.686,0.533,1.024,1.477,1.019,2.836v0.254h-1.708
				c-3.554,0.037-6.076,0.625-7.567,1.762s-2.215,2.596-2.171,4.379c0.037,1.834,0.763,3.318,2.18,4.457
				c1.418,1.137,3.307,1.723,5.669,1.756h0.981c2.217-0.033,3.996-0.684,5.341-1.951
				C227.667,505.798,228.358,504.111,228.393,502.007L228.393,502.007z M223.634,502.042c0.002,1-0.256,1.754-0.771,2.258
				c-0.518,0.506-1.302,0.758-2.354,0.76c-1.078-0.006-1.909-0.221-2.494-0.646c-0.583-0.424-0.879-1.02-0.886-1.789
				c-0.033-0.803,0.298-1.414,0.99-1.834c0.693-0.422,1.95-0.633,3.771-0.637h1.744V502.042z"/>
			<path id="path2996_8_" d="M232.438,489.87v11.773c-0.003,2.305,0.602,4.09,1.816,5.35c1.215,1.262,3.056,1.9,5.523,1.916
				c1.418-0.01,2.487-0.305,3.207-0.885c0.719-0.578,1.08-1.373,1.081-2.385v-1.744h-0.183c-0.383,0.236-0.871,0.41-1.462,0.523
				c-0.592,0.111-1.279,0.168-2.062,0.168c-0.986,0.012-1.747-0.258-2.28-0.809c-0.532-0.551-0.802-1.457-0.809-2.717v-7.666h3.889
				c0.995-0.035,1.73-0.295,2.203-0.781c0.474-0.488,0.708-1.004,0.704-1.545v-1.998h-6.796v-4.434h-1.125
				c-0.389,0.008-0.784,0.137-1.186,0.385c-0.402,0.25-0.771,0.57-1.104,0.959c-0.52,0.582-0.888,1.145-1.104,1.686
				S232.432,488.943,232.438,489.87L232.438,489.87z"/>
			<path id="path2998_8_" d="M263.481,496.23c-0.072-2.367-0.872-4.221-2.398-5.557s-3.343-2.016-5.45-2.039
				c-2.849,0.035-5.146,0.992-6.896,2.871c-1.748,1.879-2.648,4.473-2.698,7.777c0.097,3.031,1.094,5.424,2.989,7.17
				c1.896,1.748,4.108,2.641,6.64,2.676c2.648-0.027,4.502-0.453,5.56-1.277c1.059-0.82,1.567-1.873,1.526-3.156v-1.525h-0.181
				c-0.808,0.713-1.747,1.203-2.82,1.473c-1.075,0.268-2.133,0.395-3.176,0.381c-1.462-0.014-2.69-0.377-3.685-1.09
				c-0.992-0.713-1.595-1.693-1.803-2.943h3.198c3.213,0.027,5.554-0.318,7.022-1.031
				C262.778,499.245,263.502,498.001,263.481,496.23L263.481,496.23z M258.902,495.648c0.053,0.682-0.315,1.17-1.103,1.463
				c-0.788,0.291-2.31,0.434-4.565,0.428h-2.181l0.036-0.656c0.072-1.158,0.474-2.137,1.209-2.934
				c0.733-0.795,1.7-1.211,2.897-1.243c1.141,0,2.039,0.245,2.697,0.735C258.553,493.931,258.889,494.667,258.902,495.648z"/>
			<path id="path3000_8_" d="M291.338,496.933c-0.056-3.168-1.107-5.736-3.152-7.709c-2.047-1.973-4.75-2.988-8.112-3.049
				c-2.814,0.037-5.257,0.703-7.33,2.004c-2.072,1.299-3.679,3.016-4.818,5.15c-1.139,2.135-1.717,4.475-1.733,7.018
				c0.099,3.666,1.265,6.518,3.498,8.559c2.232,2.039,4.943,3.074,8.13,3.105c1.193-0.002,2.187-0.051,2.98-0.141
				c0.792-0.09,1.423-0.201,1.889-0.33c0.702-0.215,1.207-0.551,1.513-1.01c0.308-0.459,0.457-0.957,0.45-1.5v-1.197
				c-1.066,0.51-2.132,0.834-3.198,0.977c-1.065,0.141-2.06,0.203-2.979,0.186c-2.588-0.014-4.678-0.785-6.268-2.316
				c-1.591-1.531-2.408-3.738-2.453-6.623c0.081-3.395,1.072-6.051,2.976-7.971c1.901-1.92,4.229-2.895,6.98-2.93
				c2.662,0.047,4.688,0.8,6.078,2.258c1.39,1.459,2.09,3.346,2.099,5.664c-0.055,2.037-0.426,3.514-1.114,4.428
				c-0.686,0.916-1.357,1.365-2.012,1.35c-0.206,0.012-0.383-0.084-0.531-0.287c-0.147-0.201-0.225-0.578-0.232-1.129
				c0-0.389,0.028-0.85,0.088-1.383c0.058-0.531,0.149-1.101,0.276-1.707c0.1-0.475,0.201-0.98,0.305-1.514
				c0.104-0.531,0.16-1.082,0.168-1.648c-0.072-0.816-0.619-1.553-1.641-2.203c-1.02-0.65-2.085-0.994-3.192-1.031
				c-2.312,0.061-4.183,0.877-5.609,2.449c-1.428,1.572-2.161,3.541-2.203,5.91c0.051,1.719,0.531,3.104,1.44,4.156
				c0.908,1.051,1.942,1.592,3.102,1.621c0.896-0.004,1.675-0.205,2.335-0.604c0.66-0.4,1.274-0.975,1.845-1.723
				c0.241,0.766,0.638,1.344,1.189,1.734c0.551,0.393,1.221,0.59,2.007,0.592c2.115-0.041,3.838-0.887,5.17-2.535
				S291.295,499.698,291.338,496.933L291.338,496.933z M281.09,496.132c-0.248,1.744-0.551,3.125-0.908,4.143
				c-0.247,0.689-0.562,1.209-0.939,1.553c-0.38,0.346-0.865,0.52-1.459,0.52c-0.296,0.027-0.595-0.119-0.894-0.438
				c-0.302-0.318-0.463-0.971-0.487-1.961c0.034-1.312,0.356-2.359,0.968-3.148c0.61-0.787,1.306-1.193,2.084-1.213
				c0.396,0.002,0.724,0.053,0.982,0.15C280.694,495.835,280.913,495.966,281.09,496.132z"/>
			<path id="path3002_8_" d="M309.791,495.394v-2.291c-0.028-1.191-0.528-2.186-1.5-2.979c-0.971-0.793-2.254-1.205-3.843-1.234
				c-3.365,0.082-5.963,1.115-7.793,3.098c-1.831,1.98-2.758,4.412-2.78,7.295c0.082,2.855,1.081,5.184,2.997,6.984
				c1.918,1.803,4.262,2.73,7.032,2.789c1.783-0.021,3.193-0.404,4.229-1.148c1.033-0.744,1.563-1.719,1.585-2.92v-2.254h-0.182
				c-0.344,0.473-0.939,0.891-1.79,1.248c-0.852,0.359-1.975,0.549-3.37,0.568c-1.673-0.027-2.988-0.582-3.948-1.662
				c-0.958-1.08-1.446-2.525-1.467-4.334c0.047-1.486,0.581-2.717,1.609-3.688c1.025-0.971,2.271-1.473,3.732-1.508
				c1.405,0.014,2.558,0.213,3.457,0.597c0.899,0.38,1.517,0.86,1.849,1.438h0.183V495.394z"/>
			<path id="path3004_8_" d="M312.398,499.245c0.018,2.686,0.826,4.982,2.425,6.891s3.88,2.906,6.841,2.992
				c3.17-0.072,5.577-1.1,7.222-3.078c1.645-1.98,2.471-4.479,2.479-7.496c-0.019-2.686-0.827-4.988-2.425-6.908
				c-1.599-1.92-3.881-2.924-6.84-3.012c-3.172,0.074-5.578,1.107-7.223,3.098C313.234,493.724,312.407,496.228,312.398,499.245
				L312.398,499.245z M326.314,499.245c0.002,1.629-0.347,2.949-1.044,3.961c-0.698,1.012-1.756,1.531-3.17,1.562
				c-1.609-0.016-2.788-0.566-3.539-1.65c-0.75-1.082-1.121-2.604-1.111-4.564c0-1.646,0.353-2.977,1.057-3.992
				c0.705-1.016,1.758-1.537,3.157-1.566c1.593,0.016,2.767,0.566,3.523,1.652C325.945,495.736,326.32,497.269,326.314,499.245z"/>
			<path id="path3006_8_" d="M334.258,499.245c0.017,2.686,0.825,4.982,2.425,6.891s3.879,2.906,6.841,2.992
				c3.17-0.072,5.577-1.1,7.222-3.078c1.645-1.98,2.471-4.479,2.479-7.496c-0.019-2.686-0.827-4.988-2.425-6.908
				c-1.599-1.92-3.88-2.924-6.84-3.012c-3.172,0.074-5.579,1.107-7.224,3.098C335.093,493.724,334.266,496.228,334.258,499.245
				L334.258,499.245z M348.174,499.245c0.002,1.629-0.347,2.949-1.045,3.961c-0.697,1.012-1.755,1.531-3.169,1.562
				c-1.609-0.016-2.789-0.566-3.54-1.65c-0.75-1.082-1.121-2.604-1.111-4.564c0-1.646,0.353-2.977,1.059-3.992
				c0.703-1.016,1.756-1.537,3.156-1.566c1.593,0.016,2.767,0.566,3.522,1.652C347.804,495.736,348.18,497.269,348.174,499.245z"/>
			<path id="path3008_8_" d="M375.739,498.3c-0.048-2.564-0.882-4.793-2.504-6.686s-3.756-2.887-6.399-2.98
				c-3.431,0.053-5.928,1.074-7.495,3.066s-2.339,4.641-2.316,7.945v11.844c0.034,1.064,0.384,1.891,1.054,2.48
				c0.67,0.592,1.456,0.891,2.361,0.9h1.527v-8.648c0.498,0.852,1.173,1.547,2.021,2.08c0.849,0.535,1.821,0.811,2.92,0.826
				c2.864-0.059,5.048-1.076,6.555-3.057C374.969,504.091,375.727,501.501,375.739,498.3L375.739,498.3z M370.723,499.571
				c-0.019,1.586-0.389,2.848-1.111,3.789c-0.724,0.939-1.686,1.422-2.885,1.443c-1.473-0.01-2.642-0.543-3.507-1.598
				c-0.863-1.055-1.306-2.57-1.326-4.543c0.006-1.717,0.366-3.09,1.082-4.119c0.714-1.031,1.746-1.559,3.098-1.584
				c1.56-0.014,2.727,0.512,3.496,1.574C370.34,495.599,370.725,497.278,370.723,499.571L370.723,499.571z"/>
			<path id="path3010_8_" d="M396.056,496.23c-0.072-2.367-0.873-4.221-2.398-5.557s-3.343-2.016-5.45-2.039
				c-2.848,0.035-5.146,0.992-6.895,2.871s-2.648,4.473-2.698,7.777c0.097,3.031,1.093,5.424,2.988,7.17
				c1.896,1.748,4.109,2.641,6.641,2.676c2.648-0.027,4.502-0.453,5.56-1.277c1.059-0.82,1.567-1.873,1.526-3.156v-1.525h-0.181
				c-0.808,0.713-1.749,1.203-2.822,1.473c-1.075,0.268-2.132,0.395-3.175,0.381c-1.461-0.014-2.688-0.377-3.684-1.09
				c-0.994-0.713-1.594-1.693-1.803-2.943h3.198c3.212,0.027,5.552-0.318,7.021-1.031
				C395.353,499.245,396.076,498.001,396.056,496.23L396.056,496.23z M391.477,495.648c0.052,0.682-0.315,1.17-1.104,1.463
				c-0.788,0.291-2.31,0.434-4.564,0.428h-2.181l0.037-0.656c0.07-1.158,0.474-2.137,1.208-2.934c0.735-0.795,1.7-1.211,2.898-1.243
				c1.14,0,2.039,0.245,2.698,0.735S391.463,494.667,391.477,495.648z"/>
			<path id="path3012_8_" d="M411.121,493.831v-1.744c0.019-0.785-0.282-1.504-0.903-2.158c-0.621-0.652-1.678-1-3.166-1.039
				c-2.559,0.072-4.408,0.861-5.551,2.361c-1.141,1.5-1.701,3.27-1.681,5.305v9.012c0.012,1.02,0.332,1.797,0.962,2.326
				c0.631,0.529,1.497,0.795,2.6,0.799h1.344v-11.264c0.005-1.479,0.296-2.549,0.873-3.207c0.576-0.66,1.412-0.986,2.506-0.973
				c0.631,0.006,1.17,0.066,1.621,0.182c0.454,0.115,0.857,0.248,1.213,0.4H411.121z"/>
		</g>
	</g>
</g>
</svg>
