<?xml version="1.0" encoding="utf-8"?>
<!-- Generator: Adobe Illustrator 16.0.0, SVG Export Plug-In . SVG Version: 6.00 Build 0)  -->
<!DOCTYPE svg PUBLIC "-//W3C//DTD SVG 1.1//EN" "http://www.w3.org/Graphics/SVG/1.1/DTD/svg11.dtd">
<svg version="1.1" id="Layer_1" xmlns="http://www.w3.org/2000/svg" xmlns:xlink="http://www.w3.org/1999/xlink" x="0px" y="0px"
	 width="388.022px" height="376.876px" viewBox="0 0 388.022 376.876" enable-background="new 0 0 388.022 376.876"
	 xml:space="preserve">
<g>
	<g>
		<g>
			<path fill="#FFFFFF" d="M44,124.238v-15.439l-25,6.872v22.753C22,138.434,32,137.07,44,124.238z"/>
			<path fill="#FFFFFF" d="M19.073,140.737c-0.06,0-0.073-0.002-0.073-0.002v79.158l25-7.444v-84.931
				C32,139.212,23.064,140.737,19.073,140.737z"/>
		</g>
		<g>
			<path fill="#FFFFFF" d="M178.542,159.383"/>
		</g>
		<g>
			<path fill="#FFFFFF" d="M211,93.337c0,12.98,0,41.803,0,41.803c0,11.262,2.322,28.022,22.283,19.661
				c9.543-3.998,15.147-16.034,15.147-16.034l-1.682-6.967c0,0-3.481,14.111-11.499,15.065c-7.771,0.925-5.367-47.802-5.367-59.828
				L211,93.337z"/>
		</g>
		<g>
			<path fill="#FFFFFF" d="M262.564,73.295c6.484-1.61,10.436,5.154,10.436,5.154v-5.154l20-6.264v70.4
				c0,12.216,0.604,51.427-33.416,67.572c-33.785,16.034-66.958,3.149-66.958-10.594c0-13.171,18.25-22.231,40.68-23.192
				c20.043-0.859,33.128,4.581,39.999,10.88c0,0,1.438,7.539-5.339,1.717c-6.775-5.822-20.039-7.157-34.069-6.584
				c-14.635,0.597-24.528,11.166-20.711,19.946c2.898,6.666,17.562,11.263,34.359,5.346c20.221-7.122,26.344-32.259,26.344-60.701
				s-0.19-57.265-0.19-57.265s-1.336-6.299-6.49-6.299c-5.153,0-6.872,16.989-6.872,31.496c0,14.507,3.71,26.266,8.59,25.387
				c4.772-0.859,5.966-5.679,6.347-5.297s-0.238,5.679-0.238,5.679s-6.872,10.498-17.943,10.498
				c-11.07,0-14.587-16.606-14.587-35.504S248.725,76.73,262.564,73.295z"/>
		</g>
		<g>
			<polygon fill="#FFFFFF" points="321,124.261 303,129.605 303,63.56 321,57.833 			"/>
		</g>
		<g>
			<path fill="#FFFFFF" d="M319,76.635c0,0,9.289-25.329,23.543-25.435c13.17-0.095,12.915,25.172,12.915,47.888
				c0,22.715,0.162,39.309,9.657,38.344c8.446-0.859,12.199-6.681,12.199-6.681l2.308,4.39c0,0-8.582,11.453-25.188,11.453
				c-19.661,0-17.559-31.183-17.559-47.851c0-16.667-0.062-28.693-5.788-28.693C324.979,70.05,319,83.221,319,83.221V76.635z"/>
		</g>
		<g>
			<circle fill="#FFFFFF" cx="145.71" cy="161.626" r="7.874"/>
		</g>
		<g>
			<path fill="#FFFFFF" d="M278.444,121.769l-2.59-2.258c15.428-17.694,20.923-32.834,28.141-55.667l3.275,1.036
				C299.919,88.137,294.31,103.571,278.444,121.769z"/>
		</g>
		<g>
			<polygon fill="#FFFFFF" points="138,324.115 115,331.75 115,222.184 138,214.787 			"/>
		</g>
		<g>
			<path fill="#FFFFFF" d="M203.835,232.777c11.891-5.943,18.597-1.193,18.216,9.878S204,262.938,204,262.938v-3.532
				c0,0,15.379-8.222,15.379-16.987c0-8.767-4.654-6.299-7.454-3.245s-4.968,14.696-4.968,28.06c0,13.361,4.928,20.996,9.127,19.279
				c4.201-1.719,10.054-11.932,10.054-11.932l0.875,6.729c0,0-9.633,22.572-22.995,22.572c-13.362,0-14.695-21.441-14.695-39.447
				C189.323,246.426,198.681,235.354,203.835,232.777z"/>
		</g>
		<g>
			<path fill="#FFFFFF" d="M224,228.482v40.086c0,0-0.062,28.633,14.445,24.815s20.68-23.479,20.68-23.479l-1.78-5.917
				c0,0-2.661,12.884-9.724,12.884S242,265.132,242,257.307c0-8.495,0-34.551,0-34.551L224,228.482z"/>
		</g>
		<g>
			<path fill="#FFFFFF" d="M277.706,209.203c-15.849,4.755-23.287,23-23.287,42.758c0,15.213,7.024,29.858,16.988,31.066
				c18.897,2.291,28.824-23.432,34.168-35.266l-0.19-10.117c0,0-7.827,25.959-21.188,30.16
				c-13.57,4.267-11.645-22.715-10.498-31.877c1.145-9.162,3.821-19.674,8.088-22.191c2.792-1.646,6.776-1.025,8.304,2.219
				l-1.886,2.983c0,0,6.108,8.59,7.445,3.817C296.985,217.984,292.978,204.623,277.706,209.203z"/>
		</g>
		<g>
			<circle fill="#FFFFFF" cx="288.396" cy="221.039" r="7.44"/>
		</g>
		<g>
			<path fill="#FFFFFF" d="M157.401,343.596c-2.329,0-4.607-0.449-6.587-1.623c-4.165-2.469-6.17-7.529-5.961-15.043
				c0.37-13.315,10.176-28.646,29.146-45.566c13.967-12.458,28.026-21.231,28.167-21.318l1.812,2.918
				c-0.549,0.342-54.868,34.42-55.691,64.062c-0.171,6.172,1.268,10.207,4.278,11.991c5.457,3.235,15.498-1.224,18.907-3.215
				l1.732,2.968C172.77,339.023,164.828,343.596,157.401,343.596z"/>
		</g>
		<g>
			<path fill="#FFFFFF" d="M84.792,167.942c-18.221-3.38-27.608-13.23-28.697-30.114c-0.162-2.507,0.166-7.264,1.571-13.095
				c1.716-7.119,4.664-14.208,8.522-20.503c7.82-12.756,23.782-29.333,55.41-35.865c3.463-0.715,6.759-1.09,9.852-1.191
				c-0.034-0.049-0.068-0.098-0.102-0.147c-4.64-6.72-9.639-17.817-7.108-32.527c4.108-23.876,23.527-34.51,41.076-34.51
				c0.12,0,0.236,0,0.355,0.001c22.615,0.186,38.279,10.805,45.296,30.71l-3.24,1.143c-6.586-18.681-20.746-28.242-42.084-28.417
				c-16.205-0.13-34.223,9.604-38.017,31.656c-2.273,13.213,1.853,24.199,8.059,32.123c11.189,0.548,19.123,4.712,21.88,8.621
				c1.444,2.047,1.659,4.231,0.589,5.993c-0.708,1.167-2.709,2.821-8.146,0.787c-4.392-1.643-10.568-5.595-15.951-12.021
				c-3.597-0.061-7.547,0.273-11.765,1.144c-24.426,5.045-42.317,16.584-53.176,34.296c-8.634,14.083-9.853,27.571-9.595,31.58
				c0.358,5.546,1.447,22.422,25.896,26.957L84.792,167.942z M138.958,70.926c2.533,2.568,5.255,4.689,7.941,6.319
				c5.019,3.046,7.918,3.082,8.351,2.752c0.309-0.523,0.154-1.273-0.493-2.189C152.763,74.98,147.075,71.936,138.958,70.926z"/>
		</g>
		<g display="none">
			<path display="inline" fill="#FFFFFF" d="M148.86,370.213c0,0,7.731,6.299,26.342,6.299c24.625,0,56.407-42.948,82.461-42.948
				c16.894,0,20.902,6.013,20.902,6.013l-1.719,2.291c0,0-3.722-3.436-9.162-3.436c-14.602,0-51.538,48.961-90.765,45.525
				c-16.258-1.425-30.35-10.595-30.35-10.595L148.86,370.213z"/>
		</g>
		<g>
			<path fill="#FFFFFF" d="M99.612,149.77c-1.299-27.593-12.696-41.838-24.085-48.926c-5.726,6.947-8.799,12.938-10.451,17.387
				c5.453,8.944,10.254,21.006,9.913,34.757c-1.146,46.098-25.508,76.709-36.936,78.93c0,0-20.615,3.723-32.337-9.113l-2.645,2.193
				c9.726,11.725,22.764,12.357,31.26,12.074C66.286,236.007,101.903,198.418,99.612,149.77z"/>
			<path fill="#FFFFFF" d="M15.166,138.946c0.642,0.08,1.306,0.119,1.988,0.119c13-0.001,32.641-14.167,36.786-30.611
				c0.293-1.166,0.537-2.316,0.756-3.459c2.475,2.377,5.697,6.071,8.843,10.816c1.816-4.379,4.871-9.889,9.987-16.14
				c-6.939-3.832-13.655-5.128-17.838-5.293c-0.111-7.486-2.06-14.133-5.784-19.395C44.771,67.73,36.537,63.386,26.089,62.42
				l-0.316,3.421c9.417,0.87,16.791,4.718,21.326,11.125c3.309,4.675,5.042,10.632,5.153,17.391
				c-15.774-0.162-26.4,3.312-32.963,7.45c-9.141,5.763-13.973,14.252-13.973,24.55C5.316,133.582,8.906,138.17,15.166,138.946z
				 M21.032,104.771c4.318-2.74,21.198-8.525,30.611-2.24c-0.263,1.666-0.602,3.359-1.036,5.083
				c-3.912,15.522-23.67,29.331-35.019,27.923c-4.537-0.563-6.836-3.651-6.836-9.178C8.752,117.206,12.884,109.943,21.032,104.771z"
				/>
		</g>
		<g>
			<path fill="#FFFFFF" d="M105.982,166.965c0.954-0.27,1.857-0.539,2.723-0.808c0.144-0.054,0.284-0.11,0.426-0.165
				c0.001,0.01,0.001,0.021,0.002,0.031c9.277-2.937,13.783-5.971,20.8-10.697c1.115-0.75,2.294-1.544,3.561-2.385
				c9.983-7.65,17.928-17.576,18.802-24.606c1.289-10.374-5.189-18.076-18.897-15.682c-10.594,1.849-23.765,13.039-24.624,38.522
				c-0.137,4.066-0.396,7.801-0.205,11.211C92.532,168.001,79,162.437,79,162.437v3.34c11,4.158,19.982,3.365,26.729,1.297
				L105.982,166.965z M135.975,116.53c4.591-1.621,8.654,17-8.421,33.903c0.013-0.326,0.023-0.648,0.038-0.98
				C128.451,129.696,131.108,118.248,135.975,116.53z"/>
			<path fill="#FFFFFF" d="M149.39,164.839c0,0-6.773,16.271-13.764,15.331c-5.049-0.679-7.749-7.437-8.141-20.454
				c-5.411,3.549-9.994,6.107-18.078,8.623c1.875,13.979,7.498,20.918,17.691,20.918c15.08,0,25.77-20.329,26.256-25.745
				C153.843,158.094,149.39,164.839,149.39,164.839z"/>
		</g>
		<g>
			<path fill="#FFFFFF" d="M178,281.621v-79.282l-24,7.396v97.878C159,301.088,167,289.543,178,281.621z"/>
			<path fill="#FFFFFF" d="M154,312.1v8.197l24-7.635v-28.195C166,293.721,157,307.537,154,312.1z"/>
		</g>
		<g>
			<path fill="#FFFFFF" d="M72.197,339.029c-2.076,10.696-6.897,18.82-15.104,22.308c-11.453,4.868-25.054-4.151-25.054-33.644
				c0-29.491,18.611-40.085,18.611-40.085l-0.859-2.005c-10.88,4.582-18.133-5.678-19.565-12.168
				c-1.542-6.991-1.95-14.766,3.832-19.378c4.662-3.718,10.024-3.21,11.725-2.771c1.7,0.441,7.625,1.92,8.92,9.98
				c-0.977-0.136-2.069-0.216-3.219-0.216c-4.633,0-8.14,1.683-9.579,4.616c-1.177,2.397-0.8,5.24,1.027,7.602
				c1.375,1.778,3.69,2.785,6.078,2.785c0.897-0.001,1.802-0.143,2.671-0.439c1.825-0.624,5.887-2.814,6.484-10.004
				c0.398,0.119,0.803,0.246,1.222,0.375c3.905,1.215,8.765,2.725,18.536,2.725c5.732,0,12.089-1.402,15.39-5.011
				c3.218-3.517,5.162-10.118,4.725-15.032c-0.718-8.05-8.704-12.447-17.092-12.526c-3.668-0.05-6.84,1.167-9.171,3.477
				c-3.007,2.979-3.801,6.895-3.801,8.55c0,3.175,0.982,5.074,3.866,6.656l1.575-1.861c-1.783-0.977-2.004-2.878-2.004-4.795
				c0-1.297,0.755-4.1,2.783-6.108c1.613-1.598,4.738-2.358,6.952-1.838c2.434,0.573,8.206,3.302,7.445,11.597
				c-0.839,9.141-6.226,12.573-11.019,13.236c-5.731,0.793-13.375-1.172-17.163-2.349c-0.75-0.233-1.489-0.462-2.241-0.673
				c-1.252-14.565-18.105-16.568-28.798-12.936c-9.138,3.106-18.494,11.04-16.368,25.113c2.434,16.117,14.746,16.834,14.746,16.834
				s-21.617,7.301-21.617,37.508s22.62,41.374,40.515,41.374c17.896,0,39.561-15.318,46.862-39.513
				c0.005-0.018-0.002-0.043-0.017-0.07C84.425,335.568,75.521,338.171,72.197,339.029z M50.568,272.363
				c-1.804,0.616-3.925,0.104-4.929-1.196c-1.007-1.302-1.258-2.792-0.673-3.985c0.84-1.712,3.199-2.693,6.472-2.693
				c1.236,0,2.317,0.104,3.339,0.28C54.565,268.77,53.057,271.513,50.568,272.363z"/>
			<path fill="#FFFFFF" d="M155.541,238c0,36-32.717,62.633-56.606,81.505l-2.298,1.634c-1.142,0.904-0.762,0.641-1.987,1.493
				c3.436-10.116-5.536-28.081-17.752-30.182c-13.38-2.3-31.496,8.93-31.496,28.812c0,6.327,3.143,11.327,8.852,14.089
				c3.158,1.527,6.805,2.266,10.766,2.266c1.726,0,3.515-0.152,5.347-0.432l-0.014-0.063c0.121-0.026,10.984-2.47,21.862-8.692
				c2.203-1.404,4.396-2.952,6.555-4.662l2.295-1.791c11.72-9.26,26.307-20.559,37.775-34.402
				C152.39,271.215,158.977,255,158.977,238H155.541z M73.047,333.136c-6.265,1.532-12.332,1.521-17.298-0.884
				c-4.522-2.187-6.912-5.99-6.912-11c0-10.969,8.256-18.039,8.256-18.039c9.878-9.878,16.32,4.725,16.32,22.047
				C73.414,327.978,73.293,330.609,73.047,333.136z"/>
		</g>
		<path fill="#FFFFFF" d="M173.762,147.041c4.594,8.868,5.527,19.795,0.008,21.743c-7.301,2.577-12.539-4.734-12.312-8.876
			c0.216-3.935,2.62-7.835,10.145-11.794c-0.459-1.068-0.955-2.115-1.453-3.102c-8.275,4.184-12.412,8.52-12.31,15.898
			c0.11,7.945,12.025,15.994,24.519,11.167c18.292-7.067,16.874-21.1,10.098-35.211C205.28,126.685,214.715,109,214.715,94h-3.436
			c0,14-8.614,30.188-20.393,39.762c-0.562-1.056-1.146-2.132-1.75-3.18c-6.49-11.262-12.655-26.663-5.917-28.357
			c4.139-1.041,7.43,1.604,9.103,3.39c-3.496,0-6.721,2.758-6.721,6.337s2.104,7.228,6.518,7.228c4.414,0,7.152-3.486,7.224-6.994
			c0.062-3.071-4.428-16.339-19.499-12.882c-23.921,5.487-15.762,29.442-11.371,37.412"/>
		<path fill="#FFFFFF" d="M208.988,29.487l-0.572,0.286l-13.171,20.902l19.47,30.064l3.367-0.929l-4.336-23.124
			c-0.011,0-0.022,0.001-0.033,0.001c-2.767,0-5.011-2.243-5.011-5.011c0-2.767,2.244-5.011,5.011-5.011s5.011,2.244,5.011,5.011
			c0,1.952-1.119,3.64-2.749,4.467l4.323,23.055l2.721-0.75l6.585-34.932L208.988,29.487z"/>
		<path fill="#FFFFFF" d="M376.538,248.534c-4.322-4.13-10.596-5.503-17.728-3.916c0.206,1.137,0.432,2.285,0.677,3.398
			c5.575-1.286,10.9-0.608,14.676,3.001c7.221,6.902,2.039,16.785-2.352,16.596c-3.93-0.171-9.408-3.268-12.887-13.264
			c-1.523-3.932-2.547-9.883-3.109-13.896c-0.139-0.857-0.276-1.726-0.409-2.617c-3.425-22.906-18.526-18.324-18.526-18.324
			c7.062-2.1,14.697-6.872,17.752-19.279c3.054-12.407-4.026-23.098-16.22-18.516C328.947,185.273,323,202.399,322,209.975v-52.917
			l-17,5.412v86.094c4-9.775,11.568-23.029,19.289-36.54l0.136,0.051c2.49-6.871,7.206-18.021,11.811-19.239
			c4.867-1.288,4.692,11.792,2.731,16.368c-2.736,6.385-6.352,8.627-15.156,8.314C315.99,231.52,309,244.857,305,253.843v19.497
			l17-6.49v-41.871c7-0.662,12.811,6.455,15.838,20.955c0.699,3.342,1.41,6.432,2.072,9.268c-0.44,0.42-0.829,0.846-1.253,1.283
			c-15.537,16.033-3.409,30.062-3.286,30.203l2.582-2.281c-0.418-0.471-10.04-11.654,3.032-25.34
			c2.324,8.225,5.683,13.827,14.024,16.564c12.217,4.009,18.698-1.295,21.978-5.346
			C380.638,265.776,383.833,255.508,376.538,248.534z"/>
	</g>
</g>
</svg>
