<?xml version="1.0" encoding="utf-8"?>
<!-- Generator: Adobe Illustrator 16.0.0, SVG Export Plug-In . SVG Version: 6.00 Build 0)  -->
<!DOCTYPE svg PUBLIC "-//W3C//DTD SVG 1.1//EN" "http://www.w3.org/Graphics/SVG/1.1/DTD/svg11.dtd">
<svg version="1.1" xmlns="http://www.w3.org/2000/svg" xmlns:xlink="http://www.w3.org/1999/xlink" x="0px" y="0px"
	 width="463.304px" height="392px" viewBox="0 0 463.304 392" enable-background="new 0 0 463.304 392" xml:space="preserve">
<g id="Layer_1" display="none">
	
		<circle display="inline" fill="none" stroke="#89CBE1" stroke-width="8" stroke-miterlimit="10" cx="219.646" cy="279.714" r="69.646"/>
	
		<circle display="inline" fill="none" stroke="#89CBE1" stroke-width="8" stroke-miterlimit="10" cx="79.645" cy="279.714" r="69.645"/>
	
		<circle display="inline" fill="none" stroke="#89CBE1" stroke-width="8" stroke-miterlimit="10" cx="359.646" cy="279.714" r="69.646"/>
	
		<circle display="inline" fill="none" stroke="#89CBE1" stroke-width="8" stroke-miterlimit="10" cx="219.646" cy="279.714" r="69.646"/>
	
		<circle display="inline" fill="none" stroke="#89CBE1" stroke-width="8" stroke-miterlimit="10" cx="359.646" cy="419.714" r="69.646"/>
	
		<circle display="inline" fill="none" stroke="#89CBE1" stroke-width="8" stroke-miterlimit="10" cx="219.646" cy="419.714" r="69.646"/>
	
		<circle display="inline" fill="none" stroke="#89CBE1" stroke-width="8" stroke-miterlimit="10" cx="219.646" cy="419.714" r="69.646"/>
	
		<circle display="inline" fill="none" stroke="#89CBE1" stroke-width="8" stroke-miterlimit="10" cx="79.645" cy="419.714" r="69.645"/>
	
		<circle display="inline" fill="none" stroke="#89CBE1" stroke-width="8" stroke-miterlimit="10" cx="219.646" cy="-0.286" r="69.646"/>
	
		<circle display="inline" fill="none" stroke="#89CBE1" stroke-width="8" stroke-miterlimit="10" cx="79.645" cy="-0.286" r="69.645"/>
	
		<circle display="inline" fill="none" stroke="#89CBE1" stroke-width="8" stroke-miterlimit="10" cx="359.646" cy="-0.286" r="69.646"/>
	
		<circle display="inline" fill="none" stroke="#89CBE1" stroke-width="8" stroke-miterlimit="10" cx="219.646" cy="-0.286" r="69.646"/>
	
		<circle display="inline" fill="none" stroke="#89CBE1" stroke-width="8" stroke-miterlimit="10" cx="359.646" cy="139.714" r="69.646"/>
	
		<circle display="inline" fill="none" stroke="#89CBE1" stroke-width="8" stroke-miterlimit="10" cx="219.646" cy="139.714" r="69.646"/>
	
		<circle display="inline" fill="none" stroke="#89CBE1" stroke-width="8" stroke-miterlimit="10" cx="219.646" cy="139.714" r="69.646"/>
	
		<circle display="inline" fill="none" stroke="#89CBE1" stroke-width="8" stroke-miterlimit="10" cx="79.645" cy="139.714" r="69.645"/>
</g>
<g id="Layer_2" display="none">
	<g display="inline">
		<circle fill="none" stroke="#89CBE1" stroke-width="8" stroke-miterlimit="10" cx="289.646" cy="349.714" r="69.646"/>
		<circle fill="none" stroke="#89CBE1" stroke-width="8" stroke-miterlimit="10" cx="149.645" cy="349.714" r="69.645"/>
		<circle fill="none" stroke="#89CBE1" stroke-width="8" stroke-miterlimit="10" cx="289.646" cy="69.714" r="69.646"/>
		<circle fill="none" stroke="#89CBE1" stroke-width="8" stroke-miterlimit="10" cx="289.646" cy="209.714" r="69.646"/>
		<circle fill="none" stroke="#89CBE1" stroke-width="8" stroke-miterlimit="10" cx="149.645" cy="69.714" r="69.645"/>
		<circle fill="none" stroke="#89CBE1" stroke-width="8" stroke-miterlimit="10" cx="149.645" cy="209.714" r="69.645"/>
	</g>
</g>
<g id="Layer_3" display="none">
	<g display="inline">
		<polygon fill="none" stroke="#D8575E" stroke-width="8" stroke-miterlimit="10" points="97.09,132 78.287,99.5 97.09,67 
			134.697,67 153.5,99.5 134.697,132 		"/>
		<polygon fill="none" stroke="#D8575E" stroke-width="8" stroke-miterlimit="10" points="22.59,132 3.787,99.5 22.59,67 60.197,67 
			79,99.5 60.197,132 		"/>
		<polygon fill="none" stroke="#D8575E" stroke-width="8" stroke-miterlimit="10" points="172.09,132 153.287,99.5 172.09,67 
			209.697,67 228.5,99.5 209.697,132 		"/>
		<polygon fill="none" stroke="#D8575E" stroke-width="8" stroke-miterlimit="10" points="97.59,132 78.787,99.5 97.59,67 
			135.197,67 154,99.5 135.197,132 		"/>
		<polygon fill="none" stroke="#D8575E" stroke-width="8" stroke-miterlimit="10" points="97.09,197 78.287,164.5 97.09,132 
			134.697,132 153.5,164.5 134.697,197 		"/>
		<polygon fill="none" stroke="#D8575E" stroke-width="8" stroke-miterlimit="10" points="22.59,197 3.787,164.5 22.59,132 
			60.197,132 79,164.5 60.197,197 		"/>
		<polygon fill="none" stroke="#D8575E" stroke-width="8" stroke-miterlimit="10" points="172.09,197 153.287,164.5 172.09,132 
			209.697,132 228.5,164.5 209.697,197 		"/>
		<polygon fill="none" stroke="#D8575E" stroke-width="8" stroke-miterlimit="10" points="97.59,197 78.787,164.5 97.59,132 
			135.197,132 154,164.5 135.197,197 		"/>
		<polygon fill="none" stroke="#D8575E" stroke-width="8" stroke-miterlimit="10" points="97.09,2 78.287,-30.5 97.09,-63 
			134.697,-63 153.5,-30.5 134.697,2 		"/>
		<polygon fill="none" stroke="#D8575E" stroke-width="8" stroke-miterlimit="10" points="22.59,2 3.787,-30.5 22.59,-63 
			60.197,-63 79,-30.5 60.197,2 		"/>
		<polygon fill="none" stroke="#D8575E" stroke-width="8" stroke-miterlimit="10" points="172.09,2 153.287,-30.5 172.09,-63 
			209.697,-63 228.5,-30.5 209.697,2 		"/>
		<polygon fill="none" stroke="#D8575E" stroke-width="8" stroke-miterlimit="10" points="97.59,2 78.787,-30.5 97.59,-63 
			135.197,-63 154,-30.5 135.197,2 		"/>
		<polygon fill="none" stroke="#D8575E" stroke-width="8" stroke-miterlimit="10" points="97.09,67 78.287,34.5 97.09,2 134.697,2 
			153.5,34.5 134.697,67 		"/>
		<polygon fill="none" stroke="#D8575E" stroke-width="8" stroke-miterlimit="10" points="22.59,67 3.787,34.5 22.59,2 60.197,2 
			79,34.5 60.197,67 		"/>
		<polygon fill="none" stroke="#D8575E" stroke-width="8" stroke-miterlimit="10" points="172.09,67 153.287,34.5 172.09,2 
			209.697,2 228.5,34.5 209.697,67 		"/>
		<polygon fill="none" stroke="#D8575E" stroke-width="8" stroke-miterlimit="10" points="97.59,67 78.787,34.5 97.59,2 135.197,2 
			154,34.5 135.197,67 		"/>
		<polygon fill="none" stroke="#D8575E" stroke-width="8" stroke-miterlimit="10" points="97.09,132 78.287,99.5 97.09,67 
			134.697,67 153.5,99.5 134.697,132 		"/>
		<polygon fill="none" stroke="#D8575E" stroke-width="8" stroke-miterlimit="10" points="22.59,132 3.787,99.5 22.59,67 60.197,67 
			79,99.5 60.197,132 		"/>
		<polygon fill="none" stroke="#D8575E" stroke-width="8" stroke-miterlimit="10" points="172.09,132 153.287,99.5 172.09,67 
			209.697,67 228.5,99.5 209.697,132 		"/>
		<polygon fill="none" stroke="#D8575E" stroke-width="8" stroke-miterlimit="10" points="97.59,132 78.787,99.5 97.59,67 
			135.197,67 154,99.5 135.197,132 		"/>
	</g>
	<g display="inline">
		<polygon fill="none" stroke="#D8575E" stroke-width="8" stroke-miterlimit="10" points="322.09,132 303.287,99.5 322.09,67 
			359.697,67 378.5,99.5 359.697,132 		"/>
		<polygon fill="none" stroke="#D8575E" stroke-width="8" stroke-miterlimit="10" points="247.59,132 228.787,99.5 247.59,67 
			285.197,67 304,99.5 285.197,132 		"/>
		<polygon fill="none" stroke="#D8575E" stroke-width="8" stroke-miterlimit="10" points="397.09,132 378.287,99.5 397.09,67 
			434.697,67 453.5,99.5 434.697,132 		"/>
		<polygon fill="none" stroke="#D8575E" stroke-width="8" stroke-miterlimit="10" points="322.59,132 303.787,99.5 322.59,67 
			360.197,67 379,99.5 360.197,132 		"/>
		<polygon fill="none" stroke="#D8575E" stroke-width="8" stroke-miterlimit="10" points="322.09,197 303.287,164.5 322.09,132 
			359.697,132 378.5,164.5 359.697,197 		"/>
		<polygon fill="none" stroke="#D8575E" stroke-width="8" stroke-miterlimit="10" points="247.59,197 228.787,164.5 247.59,132 
			285.197,132 304,164.5 285.197,197 		"/>
		<polygon fill="none" stroke="#D8575E" stroke-width="8" stroke-miterlimit="10" points="397.09,197 378.287,164.5 397.09,132 
			434.697,132 453.5,164.5 434.697,197 		"/>
		<polygon fill="none" stroke="#D8575E" stroke-width="8" stroke-miterlimit="10" points="322.59,197 303.787,164.5 322.59,132 
			360.197,132 379,164.5 360.197,197 		"/>
		<polygon fill="none" stroke="#D8575E" stroke-width="8" stroke-miterlimit="10" points="322.09,2 303.287,-30.5 322.09,-63 
			359.697,-63 378.5,-30.5 359.697,2 		"/>
		<polygon fill="none" stroke="#D8575E" stroke-width="8" stroke-miterlimit="10" points="247.59,2 228.787,-30.5 247.59,-63 
			285.197,-63 304,-30.5 285.197,2 		"/>
		<polygon fill="none" stroke="#D8575E" stroke-width="8" stroke-miterlimit="10" points="397.09,2 378.287,-30.5 397.09,-63 
			434.697,-63 453.5,-30.5 434.697,2 		"/>
		<polygon fill="none" stroke="#D8575E" stroke-width="8" stroke-miterlimit="10" points="322.59,2 303.787,-30.5 322.59,-63 
			360.197,-63 379,-30.5 360.197,2 		"/>
		<polygon fill="none" stroke="#D8575E" stroke-width="8" stroke-miterlimit="10" points="322.09,67 303.287,34.5 322.09,2 
			359.697,2 378.5,34.5 359.697,67 		"/>
		<polygon fill="none" stroke="#D8575E" stroke-width="8" stroke-miterlimit="10" points="247.59,67 228.787,34.5 247.59,2 
			285.197,2 304,34.5 285.197,67 		"/>
		<polygon fill="none" stroke="#D8575E" stroke-width="8" stroke-miterlimit="10" points="397.09,67 378.287,34.5 397.09,2 
			434.697,2 453.5,34.5 434.697,67 		"/>
		<polygon fill="none" stroke="#D8575E" stroke-width="8" stroke-miterlimit="10" points="322.59,67 303.787,34.5 322.59,2 
			360.197,2 379,34.5 360.197,67 		"/>
		<polygon fill="none" stroke="#D8575E" stroke-width="8" stroke-miterlimit="10" points="322.09,132 303.287,99.5 322.09,67 
			359.697,67 378.5,99.5 359.697,132 		"/>
		<polygon fill="none" stroke="#D8575E" stroke-width="8" stroke-miterlimit="10" points="247.59,132 228.787,99.5 247.59,67 
			285.197,67 304,99.5 285.197,132 		"/>
		<polygon fill="none" stroke="#D8575E" stroke-width="8" stroke-miterlimit="10" points="397.09,132 378.287,99.5 397.09,67 
			434.697,67 453.5,99.5 434.697,132 		"/>
		<polygon fill="none" stroke="#D8575E" stroke-width="8" stroke-miterlimit="10" points="322.59,132 303.787,99.5 322.59,67 
			360.197,67 379,99.5 360.197,132 		"/>
	</g>
	<g display="inline">
		<polygon fill="none" stroke="#D8575E" stroke-width="8" stroke-miterlimit="10" points="97.09,392 78.287,359.5 97.09,327 
			134.697,327 153.5,359.5 134.697,392 		"/>
		<polygon fill="none" stroke="#D8575E" stroke-width="8" stroke-miterlimit="10" points="22.59,392 3.787,359.5 22.59,327 
			60.197,327 79,359.5 60.197,392 		"/>
		<polygon fill="none" stroke="#D8575E" stroke-width="8" stroke-miterlimit="10" points="172.09,392 153.287,359.5 172.09,327 
			209.697,327 228.5,359.5 209.697,392 		"/>
		<polygon fill="none" stroke="#D8575E" stroke-width="8" stroke-miterlimit="10" points="97.59,392 78.787,359.5 97.59,327 
			135.197,327 154,359.5 135.197,392 		"/>
		<polygon fill="none" stroke="#D8575E" stroke-width="8" stroke-miterlimit="10" points="97.09,457 78.287,424.5 97.09,392 
			134.697,392 153.5,424.5 134.697,457 		"/>
		<polygon fill="none" stroke="#D8575E" stroke-width="8" stroke-miterlimit="10" points="22.59,457 3.787,424.5 22.59,392 
			60.197,392 79,424.5 60.197,457 		"/>
		<polygon fill="none" stroke="#D8575E" stroke-width="8" stroke-miterlimit="10" points="172.09,457 153.287,424.5 172.09,392 
			209.697,392 228.5,424.5 209.697,457 		"/>
		<polygon fill="none" stroke="#D8575E" stroke-width="8" stroke-miterlimit="10" points="97.59,457 78.787,424.5 97.59,392 
			135.197,392 154,424.5 135.197,457 		"/>
		<polygon fill="none" stroke="#D8575E" stroke-width="8" stroke-miterlimit="10" points="97.09,262 78.287,229.5 97.09,197 
			134.697,197 153.5,229.5 134.697,262 		"/>
		<polygon fill="none" stroke="#D8575E" stroke-width="8" stroke-miterlimit="10" points="22.59,262 3.787,229.5 22.59,197 
			60.197,197 79,229.5 60.197,262 		"/>
		<polygon fill="none" stroke="#D8575E" stroke-width="8" stroke-miterlimit="10" points="172.09,262 153.287,229.5 172.09,197 
			209.697,197 228.5,229.5 209.697,262 		"/>
		<polygon fill="none" stroke="#D8575E" stroke-width="8" stroke-miterlimit="10" points="97.59,262 78.787,229.5 97.59,197 
			135.197,197 154,229.5 135.197,262 		"/>
		<polygon fill="none" stroke="#D8575E" stroke-width="8" stroke-miterlimit="10" points="97.09,327 78.287,294.5 97.09,262 
			134.697,262 153.5,294.5 134.697,327 		"/>
		<polygon fill="none" stroke="#D8575E" stroke-width="8" stroke-miterlimit="10" points="22.59,327 3.787,294.5 22.59,262 
			60.197,262 79,294.5 60.197,327 		"/>
		<polygon fill="none" stroke="#D8575E" stroke-width="8" stroke-miterlimit="10" points="172.09,327 153.287,294.5 172.09,262 
			209.697,262 228.5,294.5 209.697,327 		"/>
		<polygon fill="none" stroke="#D8575E" stroke-width="8" stroke-miterlimit="10" points="97.59,327 78.787,294.5 97.59,262 
			135.197,262 154,294.5 135.197,327 		"/>
		<polygon fill="none" stroke="#D8575E" stroke-width="8" stroke-miterlimit="10" points="97.09,392 78.287,359.5 97.09,327 
			134.697,327 153.5,359.5 134.697,392 		"/>
		<polygon fill="none" stroke="#D8575E" stroke-width="8" stroke-miterlimit="10" points="22.59,392 3.787,359.5 22.59,327 
			60.197,327 79,359.5 60.197,392 		"/>
		<polygon fill="none" stroke="#D8575E" stroke-width="8" stroke-miterlimit="10" points="172.09,392 153.287,359.5 172.09,327 
			209.697,327 228.5,359.5 209.697,392 		"/>
		<polygon fill="none" stroke="#D8575E" stroke-width="8" stroke-miterlimit="10" points="97.59,392 78.787,359.5 97.59,327 
			135.197,327 154,359.5 135.197,392 		"/>
	</g>
	<g display="inline">
		<polygon fill="none" stroke="#D8575E" stroke-width="8" stroke-miterlimit="10" points="322.09,392 303.287,359.5 322.09,327 
			359.697,327 378.5,359.5 359.697,392 		"/>
		<polygon fill="none" stroke="#D8575E" stroke-width="8" stroke-miterlimit="10" points="247.59,392 228.787,359.5 247.59,327 
			285.197,327 304,359.5 285.197,392 		"/>
		<polygon fill="none" stroke="#D8575E" stroke-width="8" stroke-miterlimit="10" points="397.09,392 378.287,359.5 397.09,327 
			434.697,327 453.5,359.5 434.697,392 		"/>
		<polygon fill="none" stroke="#D8575E" stroke-width="8" stroke-miterlimit="10" points="322.59,392 303.787,359.5 322.59,327 
			360.197,327 379,359.5 360.197,392 		"/>
		<polygon fill="none" stroke="#D8575E" stroke-width="8" stroke-miterlimit="10" points="322.09,457 303.287,424.5 322.09,392 
			359.697,392 378.5,424.5 359.697,457 		"/>
		<polygon fill="none" stroke="#D8575E" stroke-width="8" stroke-miterlimit="10" points="247.59,457 228.787,424.5 247.59,392 
			285.197,392 304,424.5 285.197,457 		"/>
		<polygon fill="none" stroke="#D8575E" stroke-width="8" stroke-miterlimit="10" points="397.09,457 378.287,424.5 397.09,392 
			434.697,392 453.5,424.5 434.697,457 		"/>
		<polygon fill="none" stroke="#D8575E" stroke-width="8" stroke-miterlimit="10" points="322.59,457 303.787,424.5 322.59,392 
			360.197,392 379,424.5 360.197,457 		"/>
		<polygon fill="none" stroke="#D8575E" stroke-width="8" stroke-miterlimit="10" points="322.09,262 303.287,229.5 322.09,197 
			359.697,197 378.5,229.5 359.697,262 		"/>
		<polygon fill="none" stroke="#D8575E" stroke-width="8" stroke-miterlimit="10" points="247.59,262 228.787,229.5 247.59,197 
			285.197,197 304,229.5 285.197,262 		"/>
		<polygon fill="none" stroke="#D8575E" stroke-width="8" stroke-miterlimit="10" points="397.09,262 378.287,229.5 397.09,197 
			434.697,197 453.5,229.5 434.697,262 		"/>
		<polygon fill="none" stroke="#D8575E" stroke-width="8" stroke-miterlimit="10" points="322.59,262 303.787,229.5 322.59,197 
			360.197,197 379,229.5 360.197,262 		"/>
		<polygon fill="none" stroke="#D8575E" stroke-width="8" stroke-miterlimit="10" points="322.09,327 303.287,294.5 322.09,262 
			359.697,262 378.5,294.5 359.697,327 		"/>
		<polygon fill="none" stroke="#D8575E" stroke-width="8" stroke-miterlimit="10" points="247.59,327 228.787,294.5 247.59,262 
			285.197,262 304,294.5 285.197,327 		"/>
		<polygon fill="none" stroke="#D8575E" stroke-width="8" stroke-miterlimit="10" points="397.09,327 378.287,294.5 397.09,262 
			434.697,262 453.5,294.5 434.697,327 		"/>
		<polygon fill="none" stroke="#D8575E" stroke-width="8" stroke-miterlimit="10" points="322.59,327 303.787,294.5 322.59,262 
			360.197,262 379,294.5 360.197,327 		"/>
		<polygon fill="none" stroke="#D8575E" stroke-width="8" stroke-miterlimit="10" points="322.09,392 303.287,359.5 322.09,327 
			359.697,327 378.5,359.5 359.697,392 		"/>
		<polygon fill="none" stroke="#D8575E" stroke-width="8" stroke-miterlimit="10" points="247.59,392 228.787,359.5 247.59,327 
			285.197,327 304,359.5 285.197,392 		"/>
		<polygon fill="none" stroke="#D8575E" stroke-width="8" stroke-miterlimit="10" points="397.09,392 378.287,359.5 397.09,327 
			434.697,327 453.5,359.5 434.697,392 		"/>
		<polygon fill="none" stroke="#D8575E" stroke-width="8" stroke-miterlimit="10" points="322.59,392 303.787,359.5 322.59,327 
			360.197,327 379,359.5 360.197,392 		"/>
	</g>
</g>
<g id="Layer_4">
	<polygon fill="none" stroke="#D8575E" stroke-width="2" stroke-miterlimit="10" points="60.59,65 41.787,32.5 60.59,0 98.197,0 
		117,32.5 98.197,65 	"/>
	<polygon fill="none" stroke="#D8575E" stroke-width="2" stroke-miterlimit="10" points="135.59,65 116.787,32.5 135.59,0 
		173.197,0 192,32.5 173.197,65 	"/>
	<polygon fill="none" stroke="#D8575E" stroke-width="2" stroke-miterlimit="10" points="60.59,130 41.787,97.5 60.59,65 98.197,65 
		117,97.5 98.197,130 	"/>
	<polygon fill="none" stroke="#D8575E" stroke-width="2" stroke-miterlimit="10" points="60.59,195 41.787,162.5 60.59,130 
		98.197,130 117,162.5 98.197,195 	"/>
	<polygon fill="none" stroke="#D8575E" stroke-width="2" stroke-miterlimit="10" points="135.59,130 116.787,97.5 135.59,65 
		173.197,65 192,97.5 173.197,130 	"/>
	<polygon fill="none" stroke="#D8575E" stroke-width="2" stroke-miterlimit="10" points="135.59,195 116.787,162.5 135.59,130 
		173.197,130 192,162.5 173.197,195 	"/>
	<polygon fill="none" stroke="#D8575E" stroke-width="2" stroke-miterlimit="10" points="210.59,65 191.787,32.5 210.59,0 
		248.197,0 267,32.5 248.197,65 	"/>
	<polygon fill="none" stroke="#D8575E" stroke-width="2" stroke-miterlimit="10" points="285.59,65 266.787,32.5 285.59,0 
		323.197,0 342,32.5 323.197,65 	"/>
	<polygon fill="none" stroke="#D8575E" stroke-width="2" stroke-miterlimit="10" points="210.59,130 191.787,97.5 210.59,65 
		248.197,65 267,97.5 248.197,130 	"/>
	<polygon fill="none" stroke="#D8575E" stroke-width="2" stroke-miterlimit="10" points="210.59,195 191.787,162.5 210.59,130 
		248.197,130 267,162.5 248.197,195 	"/>
	<polygon fill="none" stroke="#D8575E" stroke-width="2" stroke-miterlimit="10" points="285.59,130 266.787,97.5 285.59,65 
		323.197,65 342,97.5 323.197,130 	"/>
	<polygon fill="none" stroke="#D8575E" stroke-width="2" stroke-miterlimit="10" points="285.59,195 266.787,162.5 285.59,130 
		323.197,130 342,162.5 323.197,195 	"/>
	<polygon fill="none" stroke="#D8575E" stroke-width="2" stroke-miterlimit="10" points="60.59,260 41.787,227.5 60.59,195 
		98.197,195 117,227.5 98.197,260 	"/>
	<polygon fill="none" stroke="#D8575E" stroke-width="2" stroke-miterlimit="10" points="135.59,260 116.787,227.5 135.59,195 
		173.197,195 192,227.5 173.197,260 	"/>
	<polygon fill="none" stroke="#D8575E" stroke-width="2" stroke-miterlimit="10" points="60.59,325 41.787,292.5 60.59,260 
		98.197,260 117,292.5 98.197,325 	"/>
	<polygon fill="none" stroke="#D8575E" stroke-width="2" stroke-miterlimit="10" points="60.59,390 41.787,357.5 60.59,325 
		98.197,325 117,357.5 98.197,390 	"/>
	<polygon fill="none" stroke="#D8575E" stroke-width="2" stroke-miterlimit="10" points="135.59,325 116.787,292.5 135.59,260 
		173.197,260 192,292.5 173.197,325 	"/>
	<polygon fill="none" stroke="#D8575E" stroke-width="2" stroke-miterlimit="10" points="135.59,390 116.787,357.5 135.59,325 
		173.197,325 192,357.5 173.197,390 	"/>
	<polygon fill="none" stroke="#D8575E" stroke-width="2" stroke-miterlimit="10" points="210.59,260 191.787,227.5 210.59,195 
		248.197,195 267,227.5 248.197,260 	"/>
	<polygon fill="none" stroke="#D8575E" stroke-width="2" stroke-miterlimit="10" points="285.59,260 266.787,227.5 285.59,195 
		323.197,195 342,227.5 323.197,260 	"/>
	<polygon fill="none" stroke="#D8575E" stroke-width="2" stroke-miterlimit="10" points="210.59,325 191.787,292.5 210.59,260 
		248.197,260 267,292.5 248.197,325 	"/>
	<polygon fill="none" stroke="#D8575E" stroke-width="2" stroke-miterlimit="10" points="210.59,390 191.787,357.5 210.59,325 
		248.197,325 267,357.5 248.197,390 	"/>
	<polygon fill="none" stroke="#D8575E" stroke-width="2" stroke-miterlimit="10" points="285.59,325 266.787,292.5 285.59,260 
		323.197,260 342,292.5 323.197,325 	"/>
	<polygon fill="none" stroke="#D8575E" stroke-width="2" stroke-miterlimit="10" points="285.59,390 266.787,357.5 285.59,325 
		323.197,325 342,357.5 323.197,390 	"/>
	<polygon fill="none" stroke="#D8575E" stroke-width="2" stroke-miterlimit="10" points="360.59,65 341.787,32.5 360.59,0 
		398.197,0 417,32.5 398.197,65 	"/>
	<polygon fill="none" stroke="#D8575E" stroke-width="2" stroke-miterlimit="10" points="360.59,130 341.787,97.5 360.59,65 
		398.197,65 417,97.5 398.197,130 	"/>
	<polygon fill="none" stroke="#D8575E" stroke-width="2" stroke-miterlimit="10" points="360.59,195 341.787,162.5 360.59,130 
		398.197,130 417,162.5 398.197,195 	"/>
	<polygon fill="none" stroke="#D8575E" stroke-width="2" stroke-miterlimit="10" points="360.59,260 341.787,227.5 360.59,195 
		398.197,195 417,227.5 398.197,260 	"/>
	<polygon fill="none" stroke="#D8575E" stroke-width="2" stroke-miterlimit="10" points="360.59,325 341.787,292.5 360.59,260 
		398.197,260 417,292.5 398.197,325 	"/>
	<polygon fill="none" stroke="#D8575E" stroke-width="2" stroke-miterlimit="10" points="360.59,390 341.787,357.5 360.59,325 
		398.197,325 417,357.5 398.197,390 	"/>
</g>
</svg>
