<?xml version="1.0" encoding="utf-8"?>
<!-- Generator: Adobe Illustrator 16.0.0, SVG Export Plug-In . SVG Version: 6.00 Build 0)  -->
<!DOCTYPE svg PUBLIC "-//W3C//DTD SVG 1.1//EN" "http://www.w3.org/Graphics/SVG/1.1/DTD/svg11.dtd">
<svg version="1.1" xmlns="http://www.w3.org/2000/svg" xmlns:xlink="http://www.w3.org/1999/xlink" x="0px" y="0px"
	 width="463.304px" height="392px" viewBox="0 0 463.304 392" enable-background="new 0 0 463.304 392" xml:space="preserve">
<g id="Layer_1" display="none">
	
		<circle display="inline" fill="none" stroke="#89CBE1" stroke-width="8" stroke-miterlimit="10" cx="219.646" cy="279.714" r="69.646"/>
	
		<circle display="inline" fill="none" stroke="#89CBE1" stroke-width="8" stroke-miterlimit="10" cx="79.645" cy="279.714" r="69.645"/>
	
		<circle display="inline" fill="none" stroke="#89CBE1" stroke-width="8" stroke-miterlimit="10" cx="359.646" cy="279.714" r="69.646"/>
	
		<circle display="inline" fill="none" stroke="#89CBE1" stroke-width="8" stroke-miterlimit="10" cx="219.646" cy="279.714" r="69.646"/>
	
		<circle display="inline" fill="none" stroke="#89CBE1" stroke-width="8" stroke-miterlimit="10" cx="359.646" cy="419.714" r="69.646"/>
	
		<circle display="inline" fill="none" stroke="#89CBE1" stroke-width="8" stroke-miterlimit="10" cx="219.646" cy="419.714" r="69.646"/>
	
		<circle display="inline" fill="none" stroke="#89CBE1" stroke-width="8" stroke-miterlimit="10" cx="219.646" cy="419.714" r="69.646"/>
	
		<circle display="inline" fill="none" stroke="#89CBE1" stroke-width="8" stroke-miterlimit="10" cx="79.645" cy="419.714" r="69.645"/>
	
		<circle display="inline" fill="none" stroke="#89CBE1" stroke-width="8" stroke-miterlimit="10" cx="219.646" cy="-0.286" r="69.646"/>
	
		<circle display="inline" fill="none" stroke="#89CBE1" stroke-width="8" stroke-miterlimit="10" cx="79.645" cy="-0.286" r="69.645"/>
	
		<circle display="inline" fill="none" stroke="#89CBE1" stroke-width="8" stroke-miterlimit="10" cx="359.646" cy="-0.286" r="69.646"/>
	
		<circle display="inline" fill="none" stroke="#89CBE1" stroke-width="8" stroke-miterlimit="10" cx="219.646" cy="-0.286" r="69.646"/>
	
		<circle display="inline" fill="none" stroke="#89CBE1" stroke-width="8" stroke-miterlimit="10" cx="359.646" cy="139.714" r="69.646"/>
	
		<circle display="inline" fill="none" stroke="#89CBE1" stroke-width="8" stroke-miterlimit="10" cx="219.646" cy="139.714" r="69.646"/>
	
		<circle display="inline" fill="none" stroke="#89CBE1" stroke-width="8" stroke-miterlimit="10" cx="219.646" cy="139.714" r="69.646"/>
	
		<circle display="inline" fill="none" stroke="#89CBE1" stroke-width="8" stroke-miterlimit="10" cx="79.645" cy="139.714" r="69.645"/>
</g>
<g id="Layer_2" display="none">
	<g display="inline">
		<circle fill="none" stroke="#89CBE1" stroke-width="8" stroke-miterlimit="10" cx="289.646" cy="349.714" r="69.646"/>
		<circle fill="none" stroke="#89CBE1" stroke-width="8" stroke-miterlimit="10" cx="149.645" cy="349.714" r="69.645"/>
		<circle fill="none" stroke="#89CBE1" stroke-width="8" stroke-miterlimit="10" cx="289.646" cy="69.714" r="69.646"/>
		<circle fill="none" stroke="#89CBE1" stroke-width="8" stroke-miterlimit="10" cx="289.646" cy="209.714" r="69.646"/>
		<circle fill="none" stroke="#89CBE1" stroke-width="8" stroke-miterlimit="10" cx="149.645" cy="69.714" r="69.645"/>
		<circle fill="none" stroke="#89CBE1" stroke-width="8" stroke-miterlimit="10" cx="149.645" cy="209.714" r="69.645"/>
	</g>
</g>
<g id="Layer_3">
	<g>
		<polygon fill="none" stroke="#D8575E" stroke-width="2" stroke-miterlimit="10" points="97.09,130 78.287,97.5 97.09,65 
			134.697,65 153.5,97.5 134.697,130 		"/>
		<polygon fill="none" stroke="#D8575E" stroke-width="2" stroke-miterlimit="10" points="22.59,130 3.787,97.5 22.59,65 60.197,65 
			79,97.5 60.197,130 		"/>
		<polygon fill="none" stroke="#D8575E" stroke-width="2" stroke-miterlimit="10" points="172.09,130 153.287,97.5 172.09,65 
			209.697,65 228.5,97.5 209.697,130 		"/>
		<polygon fill="none" stroke="#D8575E" stroke-width="2" stroke-miterlimit="10" points="97.59,130 78.787,97.5 97.59,65 
			135.197,65 154,97.5 135.197,130 		"/>
		<polygon fill="none" stroke="#D8575E" stroke-width="2" stroke-miterlimit="10" points="97.09,195 78.287,162.5 97.09,130 
			134.697,130 153.5,162.5 134.697,195 		"/>
		<polygon fill="none" stroke="#D8575E" stroke-width="2" stroke-miterlimit="10" points="22.59,195 3.787,162.5 22.59,130 
			60.197,130 79,162.5 60.197,195 		"/>
		<polygon fill="none" stroke="#D8575E" stroke-width="2" stroke-miterlimit="10" points="172.09,195 153.287,162.5 172.09,130 
			209.697,130 228.5,162.5 209.697,195 		"/>
		<polygon fill="none" stroke="#D8575E" stroke-width="2" stroke-miterlimit="10" points="97.59,195 78.787,162.5 97.59,130 
			135.197,130 154,162.5 135.197,195 		"/>
		<polygon fill="none" stroke="#D8575E" stroke-width="2" stroke-miterlimit="10" points="97.09,0 78.287,-32.5 97.09,-65 
			134.697,-65 153.5,-32.5 134.697,0 		"/>
		<polygon fill="none" stroke="#D8575E" stroke-width="2" stroke-miterlimit="10" points="22.59,0 3.787,-32.5 22.59,-65 
			60.197,-65 79,-32.5 60.197,0 		"/>
		<polygon fill="none" stroke="#D8575E" stroke-width="2" stroke-miterlimit="10" points="172.09,0 153.287,-32.5 172.09,-65 
			209.697,-65 228.5,-32.5 209.697,0 		"/>
		<polygon fill="none" stroke="#D8575E" stroke-width="2" stroke-miterlimit="10" points="97.59,0 78.787,-32.5 97.59,-65 
			135.197,-65 154,-32.5 135.197,0 		"/>
		<polygon fill="none" stroke="#D8575E" stroke-width="2" stroke-miterlimit="10" points="97.09,65 78.287,32.5 97.09,0 134.697,0 
			153.5,32.5 134.697,65 		"/>
		<polygon fill="none" stroke="#D8575E" stroke-width="2" stroke-miterlimit="10" points="22.59,65 3.787,32.5 22.59,0 60.197,0 
			79,32.5 60.197,65 		"/>
		<polygon fill="none" stroke="#D8575E" stroke-width="2" stroke-miterlimit="10" points="172.09,65 153.287,32.5 172.09,0 
			209.697,0 228.5,32.5 209.697,65 		"/>
		<polygon fill="none" stroke="#D8575E" stroke-width="2" stroke-miterlimit="10" points="97.59,65 78.787,32.5 97.59,0 135.197,0 
			154,32.5 135.197,65 		"/>
		<polygon fill="none" stroke="#D8575E" stroke-width="2" stroke-miterlimit="10" points="97.09,130 78.287,97.5 97.09,65 
			134.697,65 153.5,97.5 134.697,130 		"/>
		<polygon fill="none" stroke="#D8575E" stroke-width="2" stroke-miterlimit="10" points="22.59,130 3.787,97.5 22.59,65 60.197,65 
			79,97.5 60.197,130 		"/>
		<polygon fill="none" stroke="#D8575E" stroke-width="2" stroke-miterlimit="10" points="172.09,130 153.287,97.5 172.09,65 
			209.697,65 228.5,97.5 209.697,130 		"/>
		<polygon fill="none" stroke="#D8575E" stroke-width="2" stroke-miterlimit="10" points="97.59,130 78.787,97.5 97.59,65 
			135.197,65 154,97.5 135.197,130 		"/>
	</g>
	<g>
		<polygon fill="none" stroke="#D8575E" stroke-width="2" stroke-miterlimit="10" points="322.09,130 303.287,97.5 322.09,65 
			359.697,65 378.5,97.5 359.697,130 		"/>
		<polygon fill="none" stroke="#D8575E" stroke-width="2" stroke-miterlimit="10" points="247.59,130 228.787,97.5 247.59,65 
			285.197,65 304,97.5 285.197,130 		"/>
		<polygon fill="none" stroke="#D8575E" stroke-width="2" stroke-miterlimit="10" points="397.09,130 378.287,97.5 397.09,65 
			434.697,65 453.5,97.5 434.697,130 		"/>
		<polygon fill="none" stroke="#D8575E" stroke-width="2" stroke-miterlimit="10" points="322.59,130 303.787,97.5 322.59,65 
			360.197,65 379,97.5 360.197,130 		"/>
		<polygon fill="none" stroke="#D8575E" stroke-width="2" stroke-miterlimit="10" points="322.09,195 303.287,162.5 322.09,130 
			359.697,130 378.5,162.5 359.697,195 		"/>
		<polygon fill="none" stroke="#D8575E" stroke-width="2" stroke-miterlimit="10" points="247.59,195 228.787,162.5 247.59,130 
			285.197,130 304,162.5 285.197,195 		"/>
		<polygon fill="none" stroke="#D8575E" stroke-width="2" stroke-miterlimit="10" points="397.09,195 378.287,162.5 397.09,130 
			434.697,130 453.5,162.5 434.697,195 		"/>
		<polygon fill="none" stroke="#D8575E" stroke-width="2" stroke-miterlimit="10" points="322.59,195 303.787,162.5 322.59,130 
			360.197,130 379,162.5 360.197,195 		"/>
		<polygon fill="none" stroke="#D8575E" stroke-width="2" stroke-miterlimit="10" points="322.09,0 303.287,-32.5 322.09,-65 
			359.697,-65 378.5,-32.5 359.697,0 		"/>
		<polygon fill="none" stroke="#D8575E" stroke-width="2" stroke-miterlimit="10" points="247.59,0 228.787,-32.5 247.59,-65 
			285.197,-65 304,-32.5 285.197,0 		"/>
		<polygon fill="none" stroke="#D8575E" stroke-width="2" stroke-miterlimit="10" points="397.09,0 378.287,-32.5 397.09,-65 
			434.697,-65 453.5,-32.5 434.697,0 		"/>
		<polygon fill="none" stroke="#D8575E" stroke-width="2" stroke-miterlimit="10" points="322.59,0 303.787,-32.5 322.59,-65 
			360.197,-65 379,-32.5 360.197,0 		"/>
		<polygon fill="none" stroke="#D8575E" stroke-width="2" stroke-miterlimit="10" points="322.09,65 303.287,32.5 322.09,0 
			359.697,0 378.5,32.5 359.697,65 		"/>
		<polygon fill="none" stroke="#D8575E" stroke-width="2" stroke-miterlimit="10" points="247.59,65 228.787,32.5 247.59,0 
			285.197,0 304,32.5 285.197,65 		"/>
		<polygon fill="none" stroke="#D8575E" stroke-width="2" stroke-miterlimit="10" points="397.09,65 378.287,32.5 397.09,0 
			434.697,0 453.5,32.5 434.697,65 		"/>
		<polygon fill="none" stroke="#D8575E" stroke-width="2" stroke-miterlimit="10" points="322.59,65 303.787,32.5 322.59,0 
			360.197,0 379,32.5 360.197,65 		"/>
		<polygon fill="none" stroke="#D8575E" stroke-width="2" stroke-miterlimit="10" points="322.09,130 303.287,97.5 322.09,65 
			359.697,65 378.5,97.5 359.697,130 		"/>
		<polygon fill="none" stroke="#D8575E" stroke-width="2" stroke-miterlimit="10" points="247.59,130 228.787,97.5 247.59,65 
			285.197,65 304,97.5 285.197,130 		"/>
		<polygon fill="none" stroke="#D8575E" stroke-width="2" stroke-miterlimit="10" points="397.09,130 378.287,97.5 397.09,65 
			434.697,65 453.5,97.5 434.697,130 		"/>
		<polygon fill="none" stroke="#D8575E" stroke-width="2" stroke-miterlimit="10" points="322.59,130 303.787,97.5 322.59,65 
			360.197,65 379,97.5 360.197,130 		"/>
	</g>
	<g>
		<polygon fill="none" stroke="#D8575E" stroke-width="2" stroke-miterlimit="10" points="97.09,390 78.287,357.5 97.09,325 
			134.697,325 153.5,357.5 134.697,390 		"/>
		<polygon fill="none" stroke="#D8575E" stroke-width="2" stroke-miterlimit="10" points="22.59,390 3.787,357.5 22.59,325 
			60.197,325 79,357.5 60.197,390 		"/>
		<polygon fill="none" stroke="#D8575E" stroke-width="2" stroke-miterlimit="10" points="172.09,390 153.287,357.5 172.09,325 
			209.697,325 228.5,357.5 209.697,390 		"/>
		<polygon fill="none" stroke="#D8575E" stroke-width="2" stroke-miterlimit="10" points="97.59,390 78.787,357.5 97.59,325 
			135.197,325 154,357.5 135.197,390 		"/>
		<polygon fill="none" stroke="#D8575E" stroke-width="2" stroke-miterlimit="10" points="97.09,455 78.287,422.5 97.09,390 
			134.697,390 153.5,422.5 134.697,455 		"/>
		<polygon fill="none" stroke="#D8575E" stroke-width="2" stroke-miterlimit="10" points="22.59,455 3.787,422.5 22.59,390 
			60.197,390 79,422.5 60.197,455 		"/>
		<polygon fill="none" stroke="#D8575E" stroke-width="2" stroke-miterlimit="10" points="172.09,455 153.287,422.5 172.09,390 
			209.697,390 228.5,422.5 209.697,455 		"/>
		<polygon fill="none" stroke="#D8575E" stroke-width="2" stroke-miterlimit="10" points="97.59,455 78.787,422.5 97.59,390 
			135.197,390 154,422.5 135.197,455 		"/>
		<polygon fill="none" stroke="#D8575E" stroke-width="2" stroke-miterlimit="10" points="97.09,260 78.287,227.5 97.09,195 
			134.697,195 153.5,227.5 134.697,260 		"/>
		<polygon fill="none" stroke="#D8575E" stroke-width="2" stroke-miterlimit="10" points="22.59,260 3.787,227.5 22.59,195 
			60.197,195 79,227.5 60.197,260 		"/>
		<polygon fill="none" stroke="#D8575E" stroke-width="2" stroke-miterlimit="10" points="172.09,260 153.287,227.5 172.09,195 
			209.697,195 228.5,227.5 209.697,260 		"/>
		<polygon fill="none" stroke="#D8575E" stroke-width="2" stroke-miterlimit="10" points="97.59,260 78.787,227.5 97.59,195 
			135.197,195 154,227.5 135.197,260 		"/>
		<polygon fill="none" stroke="#D8575E" stroke-width="2" stroke-miterlimit="10" points="97.09,325 78.287,292.5 97.09,260 
			134.697,260 153.5,292.5 134.697,325 		"/>
		<polygon fill="none" stroke="#D8575E" stroke-width="2" stroke-miterlimit="10" points="22.59,325 3.787,292.5 22.59,260 
			60.197,260 79,292.5 60.197,325 		"/>
		<polygon fill="none" stroke="#D8575E" stroke-width="2" stroke-miterlimit="10" points="172.09,325 153.287,292.5 172.09,260 
			209.697,260 228.5,292.5 209.697,325 		"/>
		<polygon fill="none" stroke="#D8575E" stroke-width="2" stroke-miterlimit="10" points="97.59,325 78.787,292.5 97.59,260 
			135.197,260 154,292.5 135.197,325 		"/>
		<polygon fill="none" stroke="#D8575E" stroke-width="2" stroke-miterlimit="10" points="97.09,390 78.287,357.5 97.09,325 
			134.697,325 153.5,357.5 134.697,390 		"/>
		<polygon fill="none" stroke="#D8575E" stroke-width="2" stroke-miterlimit="10" points="22.59,390 3.787,357.5 22.59,325 
			60.197,325 79,357.5 60.197,390 		"/>
		<polygon fill="none" stroke="#D8575E" stroke-width="2" stroke-miterlimit="10" points="172.09,390 153.287,357.5 172.09,325 
			209.697,325 228.5,357.5 209.697,390 		"/>
		<polygon fill="none" stroke="#D8575E" stroke-width="2" stroke-miterlimit="10" points="97.59,390 78.787,357.5 97.59,325 
			135.197,325 154,357.5 135.197,390 		"/>
	</g>
	<g>
		<polygon fill="none" stroke="#D8575E" stroke-width="2" stroke-miterlimit="10" points="322.09,390 303.287,357.5 322.09,325 
			359.697,325 378.5,357.5 359.697,390 		"/>
		<polygon fill="none" stroke="#D8575E" stroke-width="2" stroke-miterlimit="10" points="247.59,390 228.787,357.5 247.59,325 
			285.197,325 304,357.5 285.197,390 		"/>
		<polygon fill="none" stroke="#D8575E" stroke-width="2" stroke-miterlimit="10" points="397.09,390 378.287,357.5 397.09,325 
			434.697,325 453.5,357.5 434.697,390 		"/>
		<polygon fill="none" stroke="#D8575E" stroke-width="2" stroke-miterlimit="10" points="322.59,390 303.787,357.5 322.59,325 
			360.197,325 379,357.5 360.197,390 		"/>
		<polygon fill="none" stroke="#D8575E" stroke-width="2" stroke-miterlimit="10" points="322.09,455 303.287,422.5 322.09,390 
			359.697,390 378.5,422.5 359.697,455 		"/>
		<polygon fill="none" stroke="#D8575E" stroke-width="2" stroke-miterlimit="10" points="247.59,455 228.787,422.5 247.59,390 
			285.197,390 304,422.5 285.197,455 		"/>
		<polygon fill="none" stroke="#D8575E" stroke-width="2" stroke-miterlimit="10" points="397.09,455 378.287,422.5 397.09,390 
			434.697,390 453.5,422.5 434.697,455 		"/>
		<polygon fill="none" stroke="#D8575E" stroke-width="2" stroke-miterlimit="10" points="322.59,455 303.787,422.5 322.59,390 
			360.197,390 379,422.5 360.197,455 		"/>
		<polygon fill="none" stroke="#D8575E" stroke-width="2" stroke-miterlimit="10" points="322.09,260 303.287,227.5 322.09,195 
			359.697,195 378.5,227.5 359.697,260 		"/>
		<polygon fill="none" stroke="#D8575E" stroke-width="2" stroke-miterlimit="10" points="247.59,260 228.787,227.5 247.59,195 
			285.197,195 304,227.5 285.197,260 		"/>
		<polygon fill="none" stroke="#D8575E" stroke-width="2" stroke-miterlimit="10" points="397.09,260 378.287,227.5 397.09,195 
			434.697,195 453.5,227.5 434.697,260 		"/>
		<polygon fill="none" stroke="#D8575E" stroke-width="2" stroke-miterlimit="10" points="322.59,260 303.787,227.5 322.59,195 
			360.197,195 379,227.5 360.197,260 		"/>
		<polygon fill="none" stroke="#D8575E" stroke-width="2" stroke-miterlimit="10" points="322.09,325 303.287,292.5 322.09,260 
			359.697,260 378.5,292.5 359.697,325 		"/>
		<polygon fill="none" stroke="#D8575E" stroke-width="2" stroke-miterlimit="10" points="247.59,325 228.787,292.5 247.59,260 
			285.197,260 304,292.5 285.197,325 		"/>
		<polygon fill="none" stroke="#D8575E" stroke-width="2" stroke-miterlimit="10" points="397.09,325 378.287,292.5 397.09,260 
			434.697,260 453.5,292.5 434.697,325 		"/>
		<polygon fill="none" stroke="#D8575E" stroke-width="2" stroke-miterlimit="10" points="322.59,325 303.787,292.5 322.59,260 
			360.197,260 379,292.5 360.197,325 		"/>
		<polygon fill="none" stroke="#D8575E" stroke-width="2" stroke-miterlimit="10" points="322.09,390 303.287,357.5 322.09,325 
			359.697,325 378.5,357.5 359.697,390 		"/>
		<polygon fill="none" stroke="#D8575E" stroke-width="2" stroke-miterlimit="10" points="247.59,390 228.787,357.5 247.59,325 
			285.197,325 304,357.5 285.197,390 		"/>
		<polygon fill="none" stroke="#D8575E" stroke-width="2" stroke-miterlimit="10" points="397.09,390 378.287,357.5 397.09,325 
			434.697,325 453.5,357.5 434.697,390 		"/>
		<polygon fill="none" stroke="#D8575E" stroke-width="2" stroke-miterlimit="10" points="322.59,390 303.787,357.5 322.59,325 
			360.197,325 379,357.5 360.197,390 		"/>
	</g>
</g>
<g id="Layer_4" display="none">
	<polygon display="inline" fill="none" stroke="#D8575E" stroke-width="2" stroke-miterlimit="10" points="60.59,65 41.787,32.5 
		60.59,0 98.197,0 117,32.5 98.197,65 	"/>
	<polygon display="inline" fill="none" stroke="#D8575E" stroke-width="2" stroke-miterlimit="10" points="135.59,65 116.787,32.5 
		135.59,0 173.197,0 192,32.5 173.197,65 	"/>
	<polygon display="inline" fill="none" stroke="#D8575E" stroke-width="2" stroke-miterlimit="10" points="60.59,130 41.787,97.5 
		60.59,65 98.197,65 117,97.5 98.197,130 	"/>
	<polygon display="inline" fill="none" stroke="#D8575E" stroke-width="2" stroke-miterlimit="10" points="60.59,195 41.787,162.5 
		60.59,130 98.197,130 117,162.5 98.197,195 	"/>
	<polygon display="inline" fill="none" stroke="#D8575E" stroke-width="2" stroke-miterlimit="10" points="135.59,130 116.787,97.5 
		135.59,65 173.197,65 192,97.5 173.197,130 	"/>
	<polygon display="inline" fill="none" stroke="#D8575E" stroke-width="2" stroke-miterlimit="10" points="135.59,195 
		116.787,162.5 135.59,130 173.197,130 192,162.5 173.197,195 	"/>
	<polygon display="inline" fill="none" stroke="#D8575E" stroke-width="2" stroke-miterlimit="10" points="210.59,65 191.787,32.5 
		210.59,0 248.197,0 267,32.5 248.197,65 	"/>
	<polygon display="inline" fill="none" stroke="#D8575E" stroke-width="2" stroke-miterlimit="10" points="285.59,65 266.787,32.5 
		285.59,0 323.197,0 342,32.5 323.197,65 	"/>
	<polygon display="inline" fill="none" stroke="#D8575E" stroke-width="2" stroke-miterlimit="10" points="210.59,130 191.787,97.5 
		210.59,65 248.197,65 267,97.5 248.197,130 	"/>
	<polygon display="inline" fill="none" stroke="#D8575E" stroke-width="2" stroke-miterlimit="10" points="210.59,195 
		191.787,162.5 210.59,130 248.197,130 267,162.5 248.197,195 	"/>
	<polygon display="inline" fill="none" stroke="#D8575E" stroke-width="2" stroke-miterlimit="10" points="285.59,130 266.787,97.5 
		285.59,65 323.197,65 342,97.5 323.197,130 	"/>
	<polygon display="inline" fill="none" stroke="#D8575E" stroke-width="2" stroke-miterlimit="10" points="285.59,195 
		266.787,162.5 285.59,130 323.197,130 342,162.5 323.197,195 	"/>
	<polygon display="inline" fill="none" stroke="#D8575E" stroke-width="2" stroke-miterlimit="10" points="60.59,260 41.787,227.5 
		60.59,195 98.197,195 117,227.5 98.197,260 	"/>
	<polygon display="inline" fill="none" stroke="#D8575E" stroke-width="2" stroke-miterlimit="10" points="135.59,260 
		116.787,227.5 135.59,195 173.197,195 192,227.5 173.197,260 	"/>
	<polygon display="inline" fill="none" stroke="#D8575E" stroke-width="2" stroke-miterlimit="10" points="60.59,325 41.787,292.5 
		60.59,260 98.197,260 117,292.5 98.197,325 	"/>
	<polygon display="inline" fill="none" stroke="#D8575E" stroke-width="2" stroke-miterlimit="10" points="60.59,390 41.787,357.5 
		60.59,325 98.197,325 117,357.5 98.197,390 	"/>
	<polygon display="inline" fill="none" stroke="#D8575E" stroke-width="2" stroke-miterlimit="10" points="135.59,325 
		116.787,292.5 135.59,260 173.197,260 192,292.5 173.197,325 	"/>
	<polygon display="inline" fill="none" stroke="#D8575E" stroke-width="2" stroke-miterlimit="10" points="135.59,390 
		116.787,357.5 135.59,325 173.197,325 192,357.5 173.197,390 	"/>
	<polygon display="inline" fill="none" stroke="#D8575E" stroke-width="2" stroke-miterlimit="10" points="210.59,260 
		191.787,227.5 210.59,195 248.197,195 267,227.5 248.197,260 	"/>
	<polygon display="inline" fill="none" stroke="#D8575E" stroke-width="2" stroke-miterlimit="10" points="285.59,260 
		266.787,227.5 285.59,195 323.197,195 342,227.5 323.197,260 	"/>
	<polygon display="inline" fill="none" stroke="#D8575E" stroke-width="2" stroke-miterlimit="10" points="210.59,325 
		191.787,292.5 210.59,260 248.197,260 267,292.5 248.197,325 	"/>
	<polygon display="inline" fill="none" stroke="#D8575E" stroke-width="2" stroke-miterlimit="10" points="210.59,390 
		191.787,357.5 210.59,325 248.197,325 267,357.5 248.197,390 	"/>
	<polygon display="inline" fill="none" stroke="#D8575E" stroke-width="2" stroke-miterlimit="10" points="285.59,325 
		266.787,292.5 285.59,260 323.197,260 342,292.5 323.197,325 	"/>
	<polygon display="inline" fill="none" stroke="#D8575E" stroke-width="2" stroke-miterlimit="10" points="285.59,390 
		266.787,357.5 285.59,325 323.197,325 342,357.5 323.197,390 	"/>
	<polygon display="inline" fill="none" stroke="#D8575E" stroke-width="2" stroke-miterlimit="10" points="360.59,65 341.787,32.5 
		360.59,0 398.197,0 417,32.5 398.197,65 	"/>
	<polygon display="inline" fill="none" stroke="#D8575E" stroke-width="2" stroke-miterlimit="10" points="360.59,130 341.787,97.5 
		360.59,65 398.197,65 417,97.5 398.197,130 	"/>
	<polygon display="inline" fill="none" stroke="#D8575E" stroke-width="2" stroke-miterlimit="10" points="360.59,195 
		341.787,162.5 360.59,130 398.197,130 417,162.5 398.197,195 	"/>
	<polygon display="inline" fill="none" stroke="#D8575E" stroke-width="2" stroke-miterlimit="10" points="360.59,260 
		341.787,227.5 360.59,195 398.197,195 417,227.5 398.197,260 	"/>
	<polygon display="inline" fill="none" stroke="#D8575E" stroke-width="2" stroke-miterlimit="10" points="360.59,325 
		341.787,292.5 360.59,260 398.197,260 417,292.5 398.197,325 	"/>
	<polygon display="inline" fill="none" stroke="#D8575E" stroke-width="2" stroke-miterlimit="10" points="360.59,390 
		341.787,357.5 360.59,325 398.197,325 417,357.5 398.197,390 	"/>
</g>
</svg>
