<?xml version="1.0" encoding="utf-8"?>
<!-- Generator: Adobe Illustrator 17.0.0, SVG Export Plug-In . SVG Version: 6.00 Build 0)  -->
<!DOCTYPE svg PUBLIC "-//W3C//DTD SVG 1.1//EN" "http://www.w3.org/Graphics/SVG/1.1/DTD/svg11.dtd">
<svg version="1.1" id="Layer_1" xmlns="http://www.w3.org/2000/svg" xmlns:xlink="http://www.w3.org/1999/xlink" x="0px" y="0px"
	 width="263.667px" height="82.333px" viewBox="0 0 263.667 82.333" enable-background="new 0 0 263.667 82.333"
	 xml:space="preserve">
<g display="none">
	<g display="inline">
		<g>
			<g>
				<g>
					<path fill="#E4DDCB" d="M123.156,96.684c-17.53,0-32.356-12.539-35.252-29.816c-1.592-9.494,0.593-19.019,6.153-26.816
						c5.559-7.799,13.849-12.971,23.344-14.562c2.32-0.39,4.578-0.586,6.709-0.586c6.614,0,12.518,1.821,18.582,5.737
						c0.736,0.461,1.238,1.171,1.4,1.988c0.161,0.813-0.029,1.651-0.534,2.36l-6.099,8.907c-0.559,0.785-1.441,1.242-2.371,1.242
						c-0.592,0-1.166-0.18-1.66-0.522c-2.875-1.806-6.236-2.759-9.721-2.759c-1.018,0-2.039,0.084-3.033,0.251
						c-4.785,0.801-8.885,3.464-11.544,7.497c-2.622,3.975-3.613,8.869-2.789,13.78c1.495,8.92,8.866,15.394,17.526,15.394
						c0.995,0,2.008-0.086,3.009-0.253c4.372-0.732,8.569-3.077,11.224-6.269c0.559-0.669,1.482-1.082,2.41-1.082
						c0.659,0,1.276,0.21,1.744,0.59l8.702,6.62c0.61,0.433,1.033,1.18,1.132,2.022c0.092,0.789-0.106,1.594-0.546,2.211
						c-5.394,7.332-13.099,12.014-22.294,13.556C127.231,96.512,125.183,96.684,123.156,96.684 M124.11,27.308
						c-1.998,0-4.121,0.187-6.312,0.554C99.566,30.918,87.22,48.237,90.276,66.471c2.701,16.113,16.529,27.809,32.88,27.809
						c1.892,0,3.809-0.161,5.695-0.477c8.565-1.437,15.739-5.791,20.743-12.596c0.084-0.117,0.129-0.322,0.104-0.52
						c-0.019-0.165-0.083-0.305-0.169-0.366l-8.793-6.69c-0.024-0.021-0.104-0.05-0.227-0.05c-0.246,0-0.475,0.112-0.562,0.218
						c-3.011,3.619-7.749,6.273-12.674,7.1c-1.133,0.189-2.278,0.287-3.406,0.287c-9.84,0-18.208-7.319-19.898-17.402
						c-0.925-5.512,0.196-11.018,3.154-15.503c3.031-4.595,7.702-7.63,13.153-8.544c1.127-0.188,2.281-0.285,3.432-0.285
						c3.949,0,7.764,1.089,11.028,3.146l0.058,0.037c0.092,0.066,0.19,0.1,0.295,0.1c0.092,0,0.266-0.028,0.399-0.216l6.099-8.908
						c0.132-0.185,0.178-0.355,0.146-0.516c-0.041-0.205-0.203-0.345-0.333-0.427C135.729,29.008,130.239,27.308,124.11,27.308"/>
				</g>
			</g>
			<g>
				<g>
					<path fill="#E4DDCB" d="M137.069,59.605c-12.513,0-23.095-8.95-25.162-21.282c-1.136-6.776,0.423-13.574,4.392-19.141
						c3.968-5.565,9.886-9.258,16.663-10.394c1.656-0.277,3.27-0.418,4.791-0.418c4.718,0,8.931,1.301,13.26,4.094
						c0.498,0.312,0.836,0.789,0.943,1.337c0.107,0.545-0.021,1.107-0.361,1.584l-4.378,6.395c-0.374,0.524-0.962,0.831-1.585,0.831
						c-0.404,0-0.795-0.127-1.131-0.365c-2.057-1.294-4.501-1.99-7.037-1.99c-0.738,0-1.479,0.061-2.201,0.183
						c-7.084,1.188-11.652,7.967-10.4,15.434c1.082,6.471,6.432,11.166,12.717,11.166c0.723,0,1.457-0.061,2.183-0.184
						c3.171-0.532,6.215-2.231,8.142-4.548c0.375-0.448,0.996-0.726,1.621-0.726c0.447,0,0.867,0.144,1.179,0.404l6.233,4.742
						c0.408,0.289,0.691,0.789,0.757,1.355c0.062,0.53-0.071,1.073-0.367,1.487c-3.848,5.229-9.347,8.571-15.907,9.671
						C139.978,59.483,138.515,59.605,137.069,59.605 M137.753,9.813c-1.442,0-2.974,0.134-4.553,0.398
						c-6.397,1.073-11.982,4.556-15.727,9.809c-3.744,5.252-5.216,11.668-4.143,18.064c1.95,11.634,11.933,20.078,23.739,20.078
						c1.365,0,2.748-0.117,4.109-0.345c6.186-1.037,11.365-4.182,14.979-9.095c0.081-0.115,0.122-0.296,0.102-0.475
						c-0.019-0.162-0.084-0.293-0.18-0.361l-6.277-4.773c-0.22-0.183-0.638-0.068-0.79,0.116c-2.141,2.573-5.51,4.46-9.013,5.048
						c-0.805,0.135-1.619,0.203-2.421,0.203c-6.993,0-12.939-5.202-14.142-12.371c-1.385-8.265,3.704-15.773,11.587-17.096
						c0.801-0.134,1.621-0.202,2.439-0.202c2.809,0,5.52,0.772,7.842,2.234c0.312,0.22,0.569,0.132,0.729-0.093l4.379-6.396
						c0.115-0.161,0.157-0.326,0.127-0.478c-0.03-0.155-0.135-0.294-0.303-0.398C146.146,11.041,142.181,9.813,137.753,9.813"/>
				</g>
			</g>
			<g>
				<g>
					<path fill="#E4DDCB" d="M88.197,91.808c-14.68,0-27.093-10.5-29.518-24.968c-1.333-7.949,0.497-15.924,5.151-22.454
						c4.655-6.53,11.597-10.86,19.547-12.192c1.944-0.326,3.834-0.491,5.619-0.491c5.537,0,10.481,1.526,15.558,4.804
						c0.608,0.382,1.021,0.965,1.154,1.638c0.133,0.669-0.023,1.359-0.439,1.943l-5.116,7.472c-0.46,0.645-1.185,1.021-1.95,1.021
						c-0.487,0-0.959-0.149-1.365-0.431c-2.419-1.52-5.247-2.322-8.179-2.322c-0.857,0-1.715,0.071-2.552,0.212
						c-4.026,0.675-7.475,2.914-9.712,6.309c-2.205,3.343-3.038,7.459-2.346,11.589c1.257,7.503,7.458,12.948,14.744,12.948
						c0.836,0,1.688-0.072,2.531-0.213c3.678-0.617,7.208-2.588,9.441-5.273c0.459-0.55,1.22-0.89,1.985-0.89
						c0.551,0,1.067,0.178,1.453,0.5l7.279,5.536c0.502,0.357,0.85,0.971,0.932,1.665c0.075,0.65-0.088,1.313-0.45,1.82
						c-4.515,6.139-10.967,10.061-18.667,11.351C91.609,91.665,89.893,91.808,88.197,91.808 M88.997,33.627
						c-1.678,0-3.461,0.155-5.3,0.464c-7.444,1.247-13.942,5.3-18.299,11.412c-4.356,6.111-6.068,13.576-4.821,21.02
						c2.269,13.536,13.885,23.361,27.621,23.361c1.589,0,3.199-0.135,4.784-0.4c7.196-1.207,13.221-4.865,17.426-10.581
						c0.077-0.108,0.117-0.292,0.097-0.469c-0.018-0.153-0.078-0.28-0.161-0.34l-7.337-5.581c-0.187-0.151-0.64-0.028-0.762,0.118
						c-2.518,3.027-6.482,5.248-10.602,5.938c-0.946,0.159-1.905,0.239-2.848,0.239c-8.229,0-15.229-6.121-16.642-14.554
						c-0.773-4.611,0.163-9.217,2.637-12.969c2.536-3.843,6.441-6.381,11-7.146c0.942-0.157,1.907-0.238,2.87-0.238
						c3.304,0,6.494,0.911,9.224,2.631l0.045,0.031c0.213,0.151,0.498,0.102,0.647-0.108l5.117-7.471
						c0.117-0.164,0.158-0.321,0.129-0.468c-0.03-0.15-0.133-0.283-0.3-0.389C98.759,35.055,94.147,33.627,88.997,33.627"/>
				</g>
			</g>
		</g>
		<text transform="matrix(1 0 0 1 9.0957 131.146)" fill="#E4DDCB" font-family="'BrandonGrotesque-Bold'" font-size="19.621">CREATIVE CODE CLUB</text>
	</g>
</g>
<g>
	<g>
		<path d="M215.516,24.417v0.694l-0.007,20.507h-8.07c-0.898-0.008-1.601-0.299-2.258-0.946c-0.648-0.659-0.94-1.359-0.946-2.259
			V29.048h-5.289v13.365c-0.007,2.345,0.834,4.406,2.465,6.028c1.623,1.632,3.686,2.472,6.028,2.464h8.07l0.008,13.883
			c-0.008,0.896-0.3,1.599-0.947,2.257c-0.658,0.647-1.36,0.939-2.257,0.946h-79.698c-6.647-0.894-12.231-4.178-16.387-8.33
			c-4.878-4.882-8.262-11.594-8.266-19.994c0.004-8.486,3.386-15.107,8.266-19.993c4.891-4.884,11.296-8.26,19.992-8.264
			c8.299,0.001,15.114,3.387,19.993,8.264c4.856,4.845,8.275,13.058,8.266,19.993c-0.001,2.486-0.895,4.492-2.312,5.914
			c-1.335,1.353-4.196,2.61-6.602,2.598c-2.763,0-4.473-1.482-5.408-2.414c-0.497-0.473-0.882-1.677-1.066-2.913
			c-0.195-1.236-0.237-2.51-0.236-3.185c0.005-3.67-1.247-6.871-3.721-9.506c-2.471-2.643-5.579-3.985-9.206-3.981
			c-3.629-0.004-6.725,1.339-9.168,3.983c-2.447,2.637-3.683,5.834-3.679,9.504c-0.004,3.672,1.231,6.857,3.68,9.465
			c2.444,2.619,5.539,3.947,9.167,3.941c3.269,0.004,6.15-1.123,8.561-3.35c2.727,2.314,7.645,4.119,11.077,4.136
			c3.724-0.006,8.002-1.278,10.665-3.93c2.619-2.611,3.937-5.958,3.932-10.263c0.004-9.377-3.319-17.416-9.925-24.017
			c-6.598-6.604-14.64-9.928-24.018-9.924c-9.428-0.004-17.482,3.306-24.056,9.885c-6.581,6.573-9.888,14.629-9.884,24.056
			c-0.004,9.43,3.303,17.484,9.884,24.059c1.665,1.665,3.424,3.08,5.274,4.266h-16.49c-0.589-1.213-1.568-2.194-2.778-2.786V37.54
			c0.007-2.344-0.833-4.405-2.465-6.026c-1.622-1.632-3.685-2.472-6.027-2.466H84.39c-0.6-1.21-1.592-2.187-2.813-2.768L81.6,11.989
			h-5.289v14.344c-1.171,0.587-2.123,1.541-2.704,2.715h-9.546c-2.342-0.006-4.405,0.834-6.027,2.465
			c-1.632,1.622-2.471,3.685-2.465,6.027v4.873c-0.006,2.344,0.832,4.406,2.465,6.028c1.615,1.626,3.668,2.465,5.999,2.466
			c0.01,0,0.019,0,0.028-0.001h10.441v-5.288H64.063c-0.898-0.007-1.599-0.298-2.256-0.946c-0.648-0.657-0.941-1.359-0.947-2.259
			V37.54c0.006-0.898,0.298-1.6,0.947-2.258c0.657-0.646,1.358-0.938,2.256-0.945h9.525c0.58,1.193,1.539,2.164,2.724,2.757v13.812
			h5.289v-0.694V37.136c1.224-0.589,2.216-1.576,2.81-2.799h5.268c0.897,0.007,1.6,0.299,2.256,0.947
			c0.648,0.656,0.941,1.36,0.948,2.256v27.673c-1.993,0.98-3.367,3.026-3.368,5.397c0.001,3.324,2.695,6.02,6.02,6.021
			c2.365-0.001,4.406-1.368,5.39-3.352h111.389c0.009,0,0.019,0,0.028,0c2.33,0,4.383-0.839,5.998-2.464
			c1.632-1.623,2.473-3.685,2.465-6.027l0.001-40.371C220.806,24.417,215.516,24.417,215.516,24.417z M141.044,45.37
			c-1.395,1.603-3.066,2.374-5.146,2.381c-2.075-0.007-3.722-0.777-5.071-2.377c-1.352-1.615-2.019-3.482-2.021-5.68
			c0.002-2.191,0.67-4.084,2.025-5.75c1.35-1.642,2.995-2.433,5.066-2.439v-0.001c2.073,0.007,3.744,0.8,5.142,2.444
			c1.396,1.668,2.086,3.558,2.089,5.746C143.126,41.888,142.437,43.753,141.044,45.37z M79,33.527
			c-1.002-0.001-1.814-0.812-1.814-1.813c0-1.003,0.813-1.812,1.814-1.813c1,0.002,1.813,0.811,1.813,1.813
			C80.813,32.715,80.002,33.526,79,33.527z M95.535,72.424c-1.003-0.001-1.813-0.813-1.814-1.813c0-1.004,0.812-1.812,1.814-1.814
			c1.001,0.003,1.814,0.811,1.814,1.814C97.348,71.61,96.536,72.423,95.535,72.424z"/>
		<path d="M53.446,42.134V37.54c0.007-2.343-0.833-4.405-2.464-6.027c-1.623-1.631-3.685-2.471-6.028-2.465H40.08
			c-2.342-0.006-4.405,0.834-6.027,2.465c-1.631,1.622-2.471,3.685-2.464,6.027v4.873c0,0.114,0.011,0.224,0.015,0.336
			c-1.284,0.582-2.325,1.601-2.937,2.869h-5.385c-0.899-0.007-1.6-0.298-2.257-0.946c-0.649-0.657-0.939-1.359-0.948-2.259v-8.076
			h7.383v-5.289h-7.383V21.25H14.79v21.163c-0.007,2.344,0.832,4.406,2.465,6.028c1.615,1.626,3.668,2.465,5.999,2.466
			c0.009,0,0.019,0,0.028-0.001h5.417c0.986,1.979,3.023,3.342,5.384,3.343c2.373-0.001,4.417-1.375,5.398-3.367
			c0.19,0.01,0.378,0.025,0.572,0.025c0.009,0,0.018,0,0.026-0.001h5.812v-5.288H40.08c-0.212-0.002-0.413-0.021-0.606-0.056
			c-0.557-1.124-1.451-2.052-2.556-2.644c-0.024-0.162-0.04-0.329-0.042-0.506v-0.279L53.446,42.134L53.446,42.134z M34.083,50.042
			c-1.001,0-1.812-0.812-1.812-1.812c0-1.004,0.812-1.812,1.812-1.814c1.002,0.002,1.814,0.811,1.814,1.814
			C35.897,49.23,35.086,50.042,34.083,50.042z M36.794,36.966l0.029-0.142c0.126-0.606,0.423-1.131,0.908-1.623
			c0.675-0.666,1.417-0.977,2.342-0.981h4.88c0.924,0.005,1.667,0.315,2.344,0.982c0.483,0.491,0.781,1.016,0.908,1.622l0.027,0.142
			H36.937H36.794z"/>
		<path d="M244.675,42.489c0.002-0.025,0.004-0.05,0.004-0.076V29.048h-0.693h-4.595v12.53c-1.932,0.58-3.455,2.105-4.032,4.04
			h-4.046c-0.898-0.007-1.599-0.299-2.256-0.946c-0.649-0.658-0.94-1.359-0.948-2.259l0.001-17.996h-5.288v17.996
			c-0.007,2.343,0.832,4.406,2.466,6.028c1.62,1.632,3.683,2.473,6.025,2.465h4.874c0.008,0,0.019,0,0.028,0
			c0.021,0,0.043-0.003,0.064-0.003c1.097,1.486,2.855,2.457,4.846,2.457c3.325,0,6.019-2.694,6.019-6.019
			C247.144,45.347,246.17,43.584,244.675,42.489z M241.125,49.155c-1.003,0-1.812-0.812-1.812-1.813
			c0-1.004,0.812-1.812,1.812-1.813c1.001,0.002,1.812,0.81,1.812,1.813C242.938,48.343,242.128,49.155,241.125,49.155z"/>
		<path d="M194.543,31.514c-1.623-1.632-3.686-2.472-6.026-2.466h-4.875c-0.03,0-0.059,0.004-0.087,0.005
			c-1.099-1.474-2.848-2.432-4.826-2.433c-3.325,0.002-6.019,2.695-6.019,6.02c0,1.984,0.963,3.737,2.442,4.834
			c0,0.022-0.002,0.044-0.002,0.066v8.736h5.287v-7.867c1.955-0.578,3.49-2.118,4.064-4.072h4.015
			c0.896,0.006,1.598,0.299,2.256,0.946c0.647,0.657,0.939,1.361,0.946,2.257v13.366h5.289v-0.694V37.54
			C197.014,35.197,196.174,33.135,194.543,31.514z M178.729,34.452c-1.001,0-1.812-0.811-1.812-1.812
			c0-1.004,0.812-1.812,1.812-1.814c1.001,0.003,1.814,0.811,1.814,1.814C180.543,33.642,179.731,34.452,178.729,34.452z"/>
	</g>
</g>
</svg>
